<mxfile host="65bd71144e">
    <diagram id="jt3kRmfaXAQ2DdGvSzjm" name="第 1 页">
        <mxGraphModel dx="1277" dy="1210" grid="1" gridSize="10" guides="1" tooltips="1" connect="1" arrows="1" fold="1" page="1" pageScale="1" pageWidth="850" pageHeight="1100" math="0" shadow="0">
            <root>
                <mxCell id="0"/>
                <mxCell id="1" parent="0"/>
                <mxCell id="542" value="" style="rounded=0;whiteSpace=wrap;html=1;" vertex="1" parent="1">
                    <mxGeometry x="793" y="40" width="540" height="1070" as="geometry"/>
                </mxCell>
                <mxCell id="541" value="" style="rounded=0;whiteSpace=wrap;html=1;dashed=1;fontSize=18;fillColor=#ffffff;" vertex="1" parent="1">
                    <mxGeometry x="843" y="590" width="430" height="330" as="geometry"/>
                </mxCell>
                <mxCell id="540" value="" style="rounded=0;whiteSpace=wrap;html=1;dashed=1;fontSize=18;fillColor=#ffffff;" vertex="1" parent="1">
                    <mxGeometry x="843" y="370" width="430" height="210" as="geometry"/>
                </mxCell>
                <mxCell id="539" value="" style="rounded=0;whiteSpace=wrap;html=1;dashed=1;fontSize=18;fillColor=#ffffff;" vertex="1" parent="1">
                    <mxGeometry x="843" y="100" width="430" height="250" as="geometry"/>
                </mxCell>
                <mxCell id="528" value="" style="rounded=0;whiteSpace=wrap;html=1;fillColor=#fff2cc;strokeColor=#d6b656;" vertex="1" parent="1">
                    <mxGeometry x="30" y="40" width="750" height="1070" as="geometry"/>
                </mxCell>
                <mxCell id="529" value="" style="rounded=0;whiteSpace=wrap;html=1;fillColor=#dae8fc;strokeColor=#6c8ebf;dashed=1;" vertex="1" parent="1">
                    <mxGeometry x="88" y="90" width="635" height="620" as="geometry"/>
                </mxCell>
                <mxCell id="538" value="" style="rounded=0;whiteSpace=wrap;html=1;fontSize=18;fillColor=#dae8fc;strokeColor=#6c8ebf;dashed=1;" vertex="1" parent="1">
                    <mxGeometry x="88" y="724" width="635" height="360" as="geometry"/>
                </mxCell>
                <mxCell id="2" value="" style="shape=table;html=1;whiteSpace=wrap;startSize=0;container=1;collapsible=0;childLayout=tableLayout;sketch=0;shadow=0;rounded=0;" vertex="1" parent="1">
                    <mxGeometry x="190" y="130" width="450" height="190" as="geometry"/>
                </mxCell>
                <mxCell id="3" value="" style="shape=partialRectangle;html=1;whiteSpace=wrap;collapsible=0;dropTarget=0;pointerEvents=0;fillColor=none;top=0;left=0;bottom=0;right=0;points=[[0,0.5],[1,0.5]];portConstraint=eastwest;" vertex="1" parent="2">
                    <mxGeometry width="450" height="64" as="geometry"/>
                </mxCell>
                <mxCell id="4" value="0（根类目）" style="shape=partialRectangle;html=1;whiteSpace=wrap;connectable=0;fillColor=none;top=0;left=0;bottom=0;right=0;overflow=hidden;" vertex="1" parent="3">
                    <mxGeometry width="140" height="64" as="geometry"/>
                </mxCell>
                <mxCell id="5" value="16（女装）" style="shape=partialRectangle;html=1;whiteSpace=wrap;connectable=0;fillColor=none;top=0;left=0;bottom=0;right=0;overflow=hidden;" vertex="1" parent="3">
                    <mxGeometry x="140" width="70" height="64" as="geometry"/>
                </mxCell>
                <mxCell id="6" value="29（宠物食品）" style="shape=partialRectangle;html=1;whiteSpace=wrap;connectable=0;fillColor=none;top=0;left=0;bottom=0;right=0;overflow=hidden;" vertex="1" parent="3">
                    <mxGeometry x="210" width="90" height="64" as="geometry"/>
                </mxCell>
                <mxCell id="7" value="30（男装）" style="shape=partialRectangle;html=1;whiteSpace=wrap;connectable=0;fillColor=none;top=0;left=0;bottom=0;right=0;overflow=hidden;" vertex="1" parent="3">
                    <mxGeometry x="300" width="70" height="64" as="geometry"/>
                </mxCell>
                <mxCell id="8" value="1512（手机）" style="shape=partialRectangle;html=1;whiteSpace=wrap;connectable=0;fillColor=none;top=0;left=0;bottom=0;right=0;overflow=hidden;" vertex="1" parent="3">
                    <mxGeometry x="370" width="80" height="64" as="geometry"/>
                </mxCell>
                <mxCell id="9" value="" style="shape=partialRectangle;html=1;whiteSpace=wrap;collapsible=0;dropTarget=0;pointerEvents=0;fillColor=none;top=0;left=0;bottom=0;right=0;points=[[0,0.5],[1,0.5]];portConstraint=eastwest;" vertex="1" parent="2">
                    <mxGeometry y="64" width="450" height="62" as="geometry"/>
                </mxCell>
                <mxCell id="10" value="nameId:1&lt;br&gt;memoId:5&lt;br&gt;featureId:13&lt;br&gt;recordId:0" style="shape=partialRectangle;html=1;whiteSpace=wrap;connectable=0;fillColor=#f5f5f5;top=0;left=0;bottom=0;right=0;overflow=hidden;strokeColor=#666666;fontColor=#333333;" vertex="1" parent="9">
                    <mxGeometry width="140" height="62" as="geometry"/>
                </mxCell>
                <mxCell id="11" value="" style="shape=partialRectangle;html=1;whiteSpace=wrap;connectable=0;fillColor=#f5f5f5;top=0;left=0;bottom=0;right=0;overflow=hidden;strokeColor=#666666;fontColor=#333333;" vertex="1" parent="9">
                    <mxGeometry x="140" width="70" height="62" as="geometry"/>
                </mxCell>
                <mxCell id="12" value="" style="shape=partialRectangle;html=1;whiteSpace=wrap;connectable=0;fillColor=#f5f5f5;top=0;left=0;bottom=0;right=0;overflow=hidden;strokeColor=#666666;fontColor=#333333;" vertex="1" parent="9">
                    <mxGeometry x="210" width="90" height="62" as="geometry"/>
                </mxCell>
                <mxCell id="13" style="shape=partialRectangle;html=1;whiteSpace=wrap;connectable=0;fillColor=#f5f5f5;top=0;left=0;bottom=0;right=0;overflow=hidden;strokeColor=#666666;fontColor=#333333;" vertex="1" parent="9">
                    <mxGeometry x="300" width="70" height="62" as="geometry"/>
                </mxCell>
                <mxCell id="14" value="nameId:14&lt;br&gt;memoId:17&lt;br&gt;feaureId:24&lt;br&gt;recordId:4" style="shape=partialRectangle;html=1;whiteSpace=wrap;connectable=0;fillColor=#f5f5f5;top=0;left=0;bottom=0;right=0;overflow=hidden;strokeColor=#666666;fontColor=#333333;" vertex="1" parent="9">
                    <mxGeometry x="370" width="80" height="62" as="geometry"/>
                </mxCell>
                <mxCell id="15" value="" style="shape=partialRectangle;html=1;whiteSpace=wrap;collapsible=0;dropTarget=0;pointerEvents=0;fillColor=none;top=0;left=0;bottom=0;right=0;points=[[0,0.5],[1,0.5]];portConstraint=eastwest;" vertex="1" parent="2">
                    <mxGeometry y="126" width="450" height="64" as="geometry"/>
                </mxCell>
                <mxCell id="16" value="children:[16,29,30,1512]&lt;br&gt;parentId:null" style="shape=partialRectangle;html=1;whiteSpace=wrap;connectable=0;fillColor=#f5f5f5;top=0;left=0;bottom=0;right=0;overflow=hidden;strokeColor=#666666;fontColor=#333333;" vertex="1" parent="15">
                    <mxGeometry width="140" height="64" as="geometry"/>
                </mxCell>
                <mxCell id="17" value="" style="shape=partialRectangle;html=1;whiteSpace=wrap;connectable=0;fillColor=#f5f5f5;top=0;left=0;bottom=0;right=0;overflow=hidden;strokeColor=#666666;fontColor=#333333;" vertex="1" parent="15">
                    <mxGeometry x="140" width="70" height="64" as="geometry"/>
                </mxCell>
                <mxCell id="18" value="" style="shape=partialRectangle;html=1;whiteSpace=wrap;connectable=0;fillColor=#f5f5f5;top=0;left=0;bottom=0;right=0;overflow=hidden;strokeColor=#666666;fontColor=#333333;" vertex="1" parent="15">
                    <mxGeometry x="210" width="90" height="64" as="geometry"/>
                </mxCell>
                <mxCell id="19" style="shape=partialRectangle;html=1;whiteSpace=wrap;connectable=0;fillColor=#f5f5f5;top=0;left=0;bottom=0;right=0;overflow=hidden;strokeColor=#666666;fontColor=#333333;" vertex="1" parent="15">
                    <mxGeometry x="300" width="70" height="64" as="geometry"/>
                </mxCell>
                <mxCell id="20" value="cihldren:[]&lt;br&gt;parentId:0" style="shape=partialRectangle;html=1;whiteSpace=wrap;connectable=0;fillColor=#f5f5f5;top=0;left=0;bottom=0;right=0;overflow=hidden;strokeColor=#666666;fontColor=#333333;" vertex="1" parent="15">
                    <mxGeometry x="370" width="80" height="64" as="geometry"/>
                </mxCell>
                <mxCell id="21" value="" style="shape=table;html=1;whiteSpace=wrap;startSize=0;container=1;collapsible=0;childLayout=tableLayout;sketch=0;shadow=0;rounded=0;" vertex="1" parent="1">
                    <mxGeometry x="232.5" y="360" width="365" height="190" as="geometry"/>
                </mxCell>
                <mxCell id="22" value="" style="shape=partialRectangle;html=1;whiteSpace=wrap;collapsible=0;dropTarget=0;pointerEvents=0;fillColor=none;top=0;left=0;bottom=0;right=0;points=[[0,0.5],[1,0.5]];portConstraint=eastwest;" vertex="1" parent="21">
                    <mxGeometry width="365" height="64" as="geometry"/>
                </mxCell>
                <mxCell id="23" value="20000（品牌）" style="shape=partialRectangle;html=1;whiteSpace=wrap;connectable=0;fillColor=none;top=0;left=0;bottom=0;right=0;overflow=hidden;" vertex="1" parent="22">
                    <mxGeometry width="85" height="64" as="geometry"/>
                </mxCell>
                <mxCell id="24" value="20001（CPU）" style="shape=partialRectangle;html=1;whiteSpace=wrap;connectable=0;fillColor=none;top=0;left=0;bottom=0;right=0;overflow=hidden;" vertex="1" parent="22">
                    <mxGeometry x="85" width="90" height="64" as="geometry"/>
                </mxCell>
                <mxCell id="25" value="20003（屏幕）" style="shape=partialRectangle;html=1;whiteSpace=wrap;connectable=0;fillColor=none;top=0;left=0;bottom=0;right=0;overflow=hidden;" vertex="1" parent="22">
                    <mxGeometry x="175" width="90" height="64" as="geometry"/>
                </mxCell>
                <mxCell id="27" value="1627207（颜色）" style="shape=partialRectangle;html=1;whiteSpace=wrap;connectable=0;fillColor=none;top=0;left=0;bottom=0;right=0;overflow=hidden;" vertex="1" parent="22">
                    <mxGeometry x="265" width="100" height="64" as="geometry"/>
                </mxCell>
                <mxCell id="28" value="" style="shape=partialRectangle;html=1;whiteSpace=wrap;collapsible=0;dropTarget=0;pointerEvents=0;fillColor=none;top=0;left=0;bottom=0;right=0;points=[[0,0.5],[1,0.5]];portConstraint=eastwest;" vertex="1" parent="21">
                    <mxGeometry y="64" width="365" height="62" as="geometry"/>
                </mxCell>
                <mxCell id="29" value="nameId:36&lt;br&gt;memoId:0&lt;br&gt;featureId:0&lt;br&gt;recordId:0" style="shape=partialRectangle;html=1;whiteSpace=wrap;connectable=0;fillColor=#f5f5f5;top=0;left=0;bottom=0;right=0;overflow=hidden;strokeColor=#666666;fontColor=#333333;" vertex="1" parent="28">
                    <mxGeometry width="85" height="62" as="geometry"/>
                </mxCell>
                <mxCell id="30" value="" style="shape=partialRectangle;html=1;whiteSpace=wrap;connectable=0;fillColor=#f5f5f5;top=0;left=0;bottom=0;right=0;overflow=hidden;strokeColor=#666666;fontColor=#333333;" vertex="1" parent="28">
                    <mxGeometry x="85" width="90" height="62" as="geometry"/>
                </mxCell>
                <mxCell id="31" value="" style="shape=partialRectangle;html=1;whiteSpace=wrap;connectable=0;fillColor=#f5f5f5;top=0;left=0;bottom=0;right=0;overflow=hidden;strokeColor=#666666;fontColor=#333333;" vertex="1" parent="28">
                    <mxGeometry x="175" width="90" height="62" as="geometry"/>
                </mxCell>
                <mxCell id="33" value="nameId:39&lt;br&gt;memoId:0&lt;br&gt;feaureId:0&lt;br&gt;recordId:3" style="shape=partialRectangle;html=1;whiteSpace=wrap;connectable=0;fillColor=#f5f5f5;top=0;left=0;bottom=0;right=0;overflow=hidden;strokeColor=#666666;fontColor=#333333;" vertex="1" parent="28">
                    <mxGeometry x="265" width="100" height="62" as="geometry"/>
                </mxCell>
                <mxCell id="34" value="" style="shape=partialRectangle;html=1;whiteSpace=wrap;collapsible=0;dropTarget=0;pointerEvents=0;fillColor=none;top=0;left=0;bottom=0;right=0;points=[[0,0.5],[1,0.5]];portConstraint=eastwest;" vertex="1" parent="21">
                    <mxGeometry y="126" width="365" height="64" as="geometry"/>
                </mxCell>
                <mxCell id="35" value="cpvStart:101&lt;br&gt;cpvCount:5" style="shape=partialRectangle;html=1;whiteSpace=wrap;connectable=0;fillColor=#f5f5f5;top=0;left=0;bottom=0;right=0;overflow=hidden;strokeColor=#666666;fontColor=#333333;" vertex="1" parent="34">
                    <mxGeometry width="85" height="64" as="geometry"/>
                </mxCell>
                <mxCell id="36" value="" style="shape=partialRectangle;html=1;whiteSpace=wrap;connectable=0;fillColor=#f5f5f5;top=0;left=0;bottom=0;right=0;overflow=hidden;strokeColor=#666666;fontColor=#333333;" vertex="1" parent="34">
                    <mxGeometry x="85" width="90" height="64" as="geometry"/>
                </mxCell>
                <mxCell id="37" value="" style="shape=partialRectangle;html=1;whiteSpace=wrap;connectable=0;fillColor=#f5f5f5;top=0;left=0;bottom=0;right=0;overflow=hidden;strokeColor=#666666;fontColor=#333333;" vertex="1" parent="34">
                    <mxGeometry x="175" width="90" height="64" as="geometry"/>
                </mxCell>
                <mxCell id="39" value="cpvStart:159&lt;br&gt;cpvCount:6" style="shape=partialRectangle;html=1;whiteSpace=wrap;connectable=0;fillColor=#f5f5f5;top=0;left=0;bottom=0;right=0;overflow=hidden;strokeColor=#666666;fontColor=#333333;" vertex="1" parent="34">
                    <mxGeometry x="265" width="100" height="64" as="geometry"/>
                </mxCell>
                <mxCell id="41" value="" style="endArrow=none;html=1;entryX=0.822;entryY=1;entryDx=0;entryDy=0;entryPerimeter=0;exitX=0.002;exitY=-0.01;exitDx=0;exitDy=0;exitPerimeter=0;" edge="1" parent="1" source="22" target="15">
                    <mxGeometry width="50" height="50" relative="1" as="geometry">
                        <mxPoint x="170" y="360" as="sourcePoint"/>
                        <mxPoint x="470" y="460" as="targetPoint"/>
                    </mxGeometry>
                </mxCell>
                <mxCell id="42" value="" style="endArrow=none;html=1;entryX=0.994;entryY=1.01;entryDx=0;entryDy=0;entryPerimeter=0;exitX=0.996;exitY=-0.003;exitDx=0;exitDy=0;exitPerimeter=0;" edge="1" parent="1" source="22" target="15">
                    <mxGeometry width="50" height="50" relative="1" as="geometry">
                        <mxPoint x="480" y="470" as="sourcePoint"/>
                        <mxPoint x="530" y="420" as="targetPoint"/>
                    </mxGeometry>
                </mxCell>
                <mxCell id="43" value="" style="shape=table;html=1;whiteSpace=wrap;startSize=0;container=1;collapsible=0;childLayout=tableLayout;" vertex="1" parent="1">
                    <mxGeometry x="130.55" y="774" width="568.89" height="300" as="geometry"/>
                </mxCell>
                <mxCell id="44" value="" style="shape=partialRectangle;html=1;whiteSpace=wrap;collapsible=0;dropTarget=0;pointerEvents=0;fillColor=none;top=0;left=0;bottom=0;right=0;points=[[0,0.5],[1,0.5]];portConstraint=eastwest;" vertex="1" parent="43">
                    <mxGeometry width="568.89" height="30" as="geometry"/>
                </mxCell>
                <mxCell id="45" value="0" style="shape=partialRectangle;html=1;whiteSpace=wrap;connectable=0;fillColor=none;top=0;left=0;bottom=0;right=0;overflow=hidden;" vertex="1" parent="44">
                    <mxGeometry width="35" height="30" as="geometry"/>
                </mxCell>
                <mxCell id="46" value="1" style="shape=partialRectangle;html=1;whiteSpace=wrap;connectable=0;fillColor=none;top=0;left=0;bottom=0;right=0;overflow=hidden;" vertex="1" parent="44">
                    <mxGeometry x="35" width="36" height="30" as="geometry"/>
                </mxCell>
                <mxCell id="47" value="2" style="shape=partialRectangle;html=1;whiteSpace=wrap;connectable=0;fillColor=none;top=0;left=0;bottom=0;right=0;overflow=hidden;" vertex="1" parent="44">
                    <mxGeometry x="71" width="35" height="30" as="geometry"/>
                </mxCell>
                <mxCell id="48" value="3" style="shape=partialRectangle;html=1;whiteSpace=wrap;connectable=0;fillColor=none;top=0;left=0;bottom=0;right=0;overflow=hidden;" vertex="1" parent="44">
                    <mxGeometry x="106" width="36" height="30" as="geometry"/>
                </mxCell>
                <mxCell id="49" value="4" style="shape=partialRectangle;html=1;whiteSpace=wrap;connectable=0;fillColor=none;top=0;left=0;bottom=0;right=0;overflow=hidden;" vertex="1" parent="44">
                    <mxGeometry x="142" width="35" height="30" as="geometry"/>
                </mxCell>
                <mxCell id="50" value="5" style="shape=partialRectangle;html=1;whiteSpace=wrap;connectable=0;fillColor=none;top=0;left=0;bottom=0;right=0;overflow=hidden;" vertex="1" parent="44">
                    <mxGeometry x="177" width="36" height="30" as="geometry"/>
                </mxCell>
                <mxCell id="51" value="6" style="shape=partialRectangle;html=1;whiteSpace=wrap;connectable=0;fillColor=none;top=0;left=0;bottom=0;right=0;overflow=hidden;" vertex="1" parent="44">
                    <mxGeometry x="213" width="35" height="30" as="geometry"/>
                </mxCell>
                <mxCell id="52" value="7" style="shape=partialRectangle;html=1;whiteSpace=wrap;connectable=0;fillColor=none;top=0;left=0;bottom=0;right=0;overflow=hidden;" vertex="1" parent="44">
                    <mxGeometry x="248" width="36" height="30" as="geometry"/>
                </mxCell>
                <mxCell id="53" value="8" style="shape=partialRectangle;html=1;whiteSpace=wrap;connectable=0;fillColor=none;top=0;left=0;bottom=0;right=0;overflow=hidden;" vertex="1" parent="44">
                    <mxGeometry x="284" width="35" height="30" as="geometry"/>
                </mxCell>
                <mxCell id="54" value="9" style="shape=partialRectangle;html=1;whiteSpace=wrap;connectable=0;fillColor=none;top=0;left=0;bottom=0;right=0;overflow=hidden;" vertex="1" parent="44">
                    <mxGeometry x="319" width="36" height="30" as="geometry"/>
                </mxCell>
                <mxCell id="55" value="10" style="shape=partialRectangle;html=1;whiteSpace=wrap;connectable=0;fillColor=none;top=0;left=0;bottom=0;right=0;overflow=hidden;" vertex="1" parent="44">
                    <mxGeometry x="355" width="35" height="30" as="geometry"/>
                </mxCell>
                <mxCell id="56" value="11" style="shape=partialRectangle;html=1;whiteSpace=wrap;connectable=0;fillColor=none;top=0;left=0;bottom=0;right=0;overflow=hidden;" vertex="1" parent="44">
                    <mxGeometry x="390" width="36" height="30" as="geometry"/>
                </mxCell>
                <mxCell id="57" value="12" style="shape=partialRectangle;html=1;whiteSpace=wrap;connectable=0;fillColor=none;top=0;left=0;bottom=0;right=0;overflow=hidden;" vertex="1" parent="44">
                    <mxGeometry x="426" width="35" height="30" as="geometry"/>
                </mxCell>
                <mxCell id="58" value="13" style="shape=partialRectangle;html=1;whiteSpace=wrap;connectable=0;fillColor=none;top=0;left=0;bottom=0;right=0;overflow=hidden;" vertex="1" parent="44">
                    <mxGeometry x="461" width="36" height="30" as="geometry"/>
                </mxCell>
                <mxCell id="59" value="14" style="shape=partialRectangle;html=1;whiteSpace=wrap;connectable=0;fillColor=none;top=0;left=0;bottom=0;right=0;overflow=hidden;" vertex="1" parent="44">
                    <mxGeometry x="497" width="36" height="30" as="geometry"/>
                </mxCell>
                <mxCell id="60" value="15" style="shape=partialRectangle;html=1;whiteSpace=wrap;connectable=0;fillColor=none;top=0;left=0;bottom=0;right=0;overflow=hidden;" vertex="1" parent="44">
                    <mxGeometry x="533" width="36" height="30" as="geometry"/>
                </mxCell>
                <mxCell id="61" value="" style="shape=partialRectangle;html=1;whiteSpace=wrap;collapsible=0;dropTarget=0;pointerEvents=0;fillColor=#f5f5f5;top=0;left=0;bottom=0;right=0;points=[[0,0.5],[1,0.5]];portConstraint=eastwest;fontColor=#333333;" vertex="1" parent="43">
                    <mxGeometry y="30" width="568.89" height="31" as="geometry"/>
                </mxCell>
                <mxCell id="62" value="0" style="shape=partialRectangle;html=1;whiteSpace=wrap;connectable=0;fillColor=none;top=0;left=0;bottom=0;right=0;overflow=hidden;" vertex="1" parent="61">
                    <mxGeometry width="35" height="31" as="geometry"/>
                </mxCell>
                <mxCell id="63" value="3" style="shape=partialRectangle;html=1;whiteSpace=wrap;connectable=0;fillColor=none;top=0;left=0;bottom=0;right=0;overflow=hidden;" vertex="1" parent="61">
                    <mxGeometry x="35" width="36" height="31" as="geometry"/>
                </mxCell>
                <mxCell id="64" value="根" style="shape=partialRectangle;html=1;whiteSpace=wrap;connectable=0;fillColor=#f8cecc;top=0;left=0;bottom=0;right=0;overflow=hidden;strokeColor=#b85450;" vertex="1" parent="61">
                    <mxGeometry x="71" width="35" height="31" as="geometry"/>
                </mxCell>
                <mxCell id="65" value="类" style="shape=partialRectangle;html=1;whiteSpace=wrap;connectable=0;fillColor=#f8cecc;top=0;left=0;bottom=0;right=0;overflow=hidden;strokeColor=#b85450;" vertex="1" parent="61">
                    <mxGeometry x="106" width="36" height="31" as="geometry"/>
                </mxCell>
                <mxCell id="66" value="目" style="shape=partialRectangle;html=1;whiteSpace=wrap;connectable=0;fillColor=#f8cecc;top=0;left=0;bottom=0;right=0;overflow=hidden;strokeColor=#b85450;" vertex="1" parent="61">
                    <mxGeometry x="142" width="35" height="31" as="geometry"/>
                </mxCell>
                <mxCell id="67" value="7" style="shape=partialRectangle;html=1;whiteSpace=wrap;connectable=0;fillColor=none;top=0;left=0;bottom=0;right=0;overflow=hidden;" vertex="1" parent="61">
                    <mxGeometry x="177" width="36" height="31" as="geometry"/>
                </mxCell>
                <mxCell id="68" value="这" style="shape=partialRectangle;html=1;whiteSpace=wrap;connectable=0;fillColor=#f8cecc;top=0;left=0;bottom=0;right=0;overflow=hidden;strokeColor=#b85450;" vertex="1" parent="61">
                    <mxGeometry x="213" width="35" height="31" as="geometry"/>
                </mxCell>
                <mxCell id="69" value="是" style="shape=partialRectangle;html=1;whiteSpace=wrap;connectable=0;fillColor=#f8cecc;top=0;left=0;bottom=0;right=0;overflow=hidden;strokeColor=#b85450;" vertex="1" parent="61">
                    <mxGeometry x="248" width="36" height="31" as="geometry"/>
                </mxCell>
                <mxCell id="70" value="一" style="shape=partialRectangle;html=1;whiteSpace=wrap;connectable=0;fillColor=#f8cecc;top=0;left=0;bottom=0;right=0;overflow=hidden;strokeColor=#b85450;" vertex="1" parent="61">
                    <mxGeometry x="284" width="35" height="31" as="geometry"/>
                </mxCell>
                <mxCell id="71" value="个" style="shape=partialRectangle;html=1;whiteSpace=wrap;connectable=0;fillColor=#f8cecc;top=0;left=0;bottom=0;right=0;overflow=hidden;strokeColor=#b85450;" vertex="1" parent="61">
                    <mxGeometry x="319" width="36" height="31" as="geometry"/>
                </mxCell>
                <mxCell id="72" value="根" style="shape=partialRectangle;html=1;whiteSpace=wrap;connectable=0;fillColor=#f8cecc;top=0;left=0;bottom=0;right=0;overflow=hidden;strokeColor=#b85450;" vertex="1" parent="61">
                    <mxGeometry x="355" width="35" height="31" as="geometry"/>
                </mxCell>
                <mxCell id="73" value="类" style="shape=partialRectangle;html=1;whiteSpace=wrap;connectable=0;fillColor=#f8cecc;top=0;left=0;bottom=0;right=0;overflow=hidden;strokeColor=#b85450;" vertex="1" parent="61">
                    <mxGeometry x="390" width="36" height="31" as="geometry"/>
                </mxCell>
                <mxCell id="74" value="目" style="shape=partialRectangle;html=1;whiteSpace=wrap;connectable=0;fillColor=#f8cecc;top=0;left=0;bottom=0;right=0;overflow=hidden;strokeColor=#b85450;" vertex="1" parent="61">
                    <mxGeometry x="426" width="35" height="31" as="geometry"/>
                </mxCell>
                <mxCell id="75" value="0" style="shape=partialRectangle;html=1;whiteSpace=wrap;connectable=0;fillColor=none;top=0;left=0;bottom=0;right=0;overflow=hidden;" vertex="1" parent="61">
                    <mxGeometry x="461" width="36" height="31" as="geometry"/>
                </mxCell>
                <mxCell id="76" value="2" style="shape=partialRectangle;html=1;whiteSpace=wrap;connectable=0;fillColor=none;top=0;left=0;bottom=0;right=0;overflow=hidden;" vertex="1" parent="61">
                    <mxGeometry x="497" width="36" height="31" as="geometry"/>
                </mxCell>
                <mxCell id="77" value="手" style="shape=partialRectangle;html=1;whiteSpace=wrap;connectable=0;fillColor=#f8cecc;top=0;left=0;bottom=0;right=0;overflow=hidden;strokeColor=#b85450;" vertex="1" parent="61">
                    <mxGeometry x="533" width="36" height="31" as="geometry"/>
                </mxCell>
                <mxCell id="78" style="shape=partialRectangle;html=1;whiteSpace=wrap;collapsible=0;dropTarget=0;pointerEvents=0;fillColor=none;top=0;left=0;bottom=0;right=0;points=[[0,0.5],[1,0.5]];portConstraint=eastwest;" vertex="1" parent="43">
                    <mxGeometry y="61" width="568.89" height="29" as="geometry"/>
                </mxCell>
                <mxCell id="79" value="16" style="shape=partialRectangle;html=1;whiteSpace=wrap;connectable=0;fillColor=none;top=0;left=0;bottom=0;right=0;overflow=hidden;" vertex="1" parent="78">
                    <mxGeometry width="35" height="29" as="geometry"/>
                </mxCell>
                <mxCell id="80" value="17" style="shape=partialRectangle;html=1;whiteSpace=wrap;connectable=0;fillColor=none;top=0;left=0;bottom=0;right=0;overflow=hidden;" vertex="1" parent="78">
                    <mxGeometry x="35" width="36" height="29" as="geometry"/>
                </mxCell>
                <mxCell id="81" value="18" style="shape=partialRectangle;html=1;whiteSpace=wrap;connectable=0;fillColor=none;top=0;left=0;bottom=0;right=0;overflow=hidden;" vertex="1" parent="78">
                    <mxGeometry x="71" width="35" height="29" as="geometry"/>
                </mxCell>
                <mxCell id="82" value="19" style="shape=partialRectangle;html=1;whiteSpace=wrap;connectable=0;fillColor=none;top=0;left=0;bottom=0;right=0;overflow=hidden;" vertex="1" parent="78">
                    <mxGeometry x="106" width="36" height="29" as="geometry"/>
                </mxCell>
                <mxCell id="83" value="20" style="shape=partialRectangle;html=1;whiteSpace=wrap;connectable=0;fillColor=none;top=0;left=0;bottom=0;right=0;overflow=hidden;" vertex="1" parent="78">
                    <mxGeometry x="142" width="35" height="29" as="geometry"/>
                </mxCell>
                <mxCell id="84" value="21" style="shape=partialRectangle;html=1;whiteSpace=wrap;connectable=0;fillColor=none;top=0;left=0;bottom=0;right=0;overflow=hidden;" vertex="1" parent="78">
                    <mxGeometry x="177" width="36" height="29" as="geometry"/>
                </mxCell>
                <mxCell id="85" value="22" style="shape=partialRectangle;html=1;whiteSpace=wrap;connectable=0;fillColor=none;top=0;left=0;bottom=0;right=0;overflow=hidden;" vertex="1" parent="78">
                    <mxGeometry x="213" width="35" height="29" as="geometry"/>
                </mxCell>
                <mxCell id="86" value="23" style="shape=partialRectangle;html=1;whiteSpace=wrap;connectable=0;fillColor=none;top=0;left=0;bottom=0;right=0;overflow=hidden;" vertex="1" parent="78">
                    <mxGeometry x="248" width="36" height="29" as="geometry"/>
                </mxCell>
                <mxCell id="87" value="24" style="shape=partialRectangle;html=1;whiteSpace=wrap;connectable=0;fillColor=none;top=0;left=0;bottom=0;right=0;overflow=hidden;" vertex="1" parent="78">
                    <mxGeometry x="284" width="35" height="29" as="geometry"/>
                </mxCell>
                <mxCell id="88" value="25" style="shape=partialRectangle;html=1;whiteSpace=wrap;connectable=0;fillColor=none;top=0;left=0;bottom=0;right=0;overflow=hidden;" vertex="1" parent="78">
                    <mxGeometry x="319" width="36" height="29" as="geometry"/>
                </mxCell>
                <mxCell id="89" value="26" style="shape=partialRectangle;html=1;whiteSpace=wrap;connectable=0;fillColor=none;top=0;left=0;bottom=0;right=0;overflow=hidden;" vertex="1" parent="78">
                    <mxGeometry x="355" width="35" height="29" as="geometry"/>
                </mxCell>
                <mxCell id="90" value="27" style="shape=partialRectangle;html=1;whiteSpace=wrap;connectable=0;fillColor=none;top=0;left=0;bottom=0;right=0;overflow=hidden;" vertex="1" parent="78">
                    <mxGeometry x="390" width="36" height="29" as="geometry"/>
                </mxCell>
                <mxCell id="91" value="28" style="shape=partialRectangle;html=1;whiteSpace=wrap;connectable=0;fillColor=none;top=0;left=0;bottom=0;right=0;overflow=hidden;" vertex="1" parent="78">
                    <mxGeometry x="426" width="35" height="29" as="geometry"/>
                </mxCell>
                <mxCell id="92" value="29" style="shape=partialRectangle;html=1;whiteSpace=wrap;connectable=0;fillColor=none;top=0;left=0;bottom=0;right=0;overflow=hidden;" vertex="1" parent="78">
                    <mxGeometry x="461" width="36" height="29" as="geometry"/>
                </mxCell>
                <mxCell id="93" value="30" style="shape=partialRectangle;html=1;whiteSpace=wrap;connectable=0;fillColor=none;top=0;left=0;bottom=0;right=0;overflow=hidden;" vertex="1" parent="78">
                    <mxGeometry x="497" width="36" height="29" as="geometry"/>
                </mxCell>
                <mxCell id="94" value="31" style="shape=partialRectangle;html=1;whiteSpace=wrap;connectable=0;fillColor=none;top=0;left=0;bottom=0;right=0;overflow=hidden;" vertex="1" parent="78">
                    <mxGeometry x="533" width="36" height="29" as="geometry"/>
                </mxCell>
                <mxCell id="95" style="shape=partialRectangle;html=1;whiteSpace=wrap;collapsible=0;dropTarget=0;pointerEvents=0;fillColor=#f5f5f5;top=0;left=0;bottom=0;right=0;points=[[0,0.5],[1,0.5]];portConstraint=eastwest;strokeColor=#666666;fontColor=#333333;" vertex="1" parent="43">
                    <mxGeometry y="90" width="568.89" height="29" as="geometry"/>
                </mxCell>
                <mxCell id="96" value="机" style="shape=partialRectangle;html=1;whiteSpace=wrap;connectable=0;fillColor=#f8cecc;top=0;left=0;bottom=0;right=0;overflow=hidden;strokeColor=#b85450;" vertex="1" parent="95">
                    <mxGeometry width="35" height="29" as="geometry"/>
                </mxCell>
                <mxCell id="97" value="6" style="shape=partialRectangle;html=1;whiteSpace=wrap;connectable=0;fillColor=none;top=0;left=0;bottom=0;right=0;overflow=hidden;" vertex="1" parent="95">
                    <mxGeometry x="35" width="36" height="29" as="geometry"/>
                </mxCell>
                <mxCell id="98" value="这" style="shape=partialRectangle;html=1;whiteSpace=wrap;connectable=0;fillColor=#f8cecc;top=0;left=0;bottom=0;right=0;overflow=hidden;strokeColor=#b85450;" vertex="1" parent="95">
                    <mxGeometry x="71" width="35" height="29" as="geometry"/>
                </mxCell>
                <mxCell id="99" value="是" style="shape=partialRectangle;html=1;whiteSpace=wrap;connectable=0;fillColor=#f8cecc;top=0;left=0;bottom=0;right=0;overflow=hidden;strokeColor=#b85450;" vertex="1" parent="95">
                    <mxGeometry x="106" width="36" height="29" as="geometry"/>
                </mxCell>
                <mxCell id="100" value="手" style="shape=partialRectangle;html=1;whiteSpace=wrap;connectable=0;fillColor=#f8cecc;top=0;left=0;bottom=0;right=0;overflow=hidden;strokeColor=#b85450;" vertex="1" parent="95">
                    <mxGeometry x="142" width="35" height="29" as="geometry"/>
                </mxCell>
                <mxCell id="101" value="机" style="shape=partialRectangle;html=1;whiteSpace=wrap;connectable=0;fillColor=#f8cecc;top=0;left=0;bottom=0;right=0;overflow=hidden;strokeColor=#b85450;" vertex="1" parent="95">
                    <mxGeometry x="177" width="36" height="29" as="geometry"/>
                </mxCell>
                <mxCell id="102" value="类" style="shape=partialRectangle;html=1;whiteSpace=wrap;connectable=0;fillColor=#f8cecc;top=0;left=0;bottom=0;right=0;overflow=hidden;strokeColor=#b85450;" vertex="1" parent="95">
                    <mxGeometry x="213" width="35" height="29" as="geometry"/>
                </mxCell>
                <mxCell id="103" value="木" style="shape=partialRectangle;html=1;whiteSpace=wrap;connectable=0;fillColor=#f8cecc;top=0;left=0;bottom=0;right=0;overflow=hidden;strokeColor=#b85450;" vertex="1" parent="95">
                    <mxGeometry x="248" width="36" height="29" as="geometry"/>
                </mxCell>
                <mxCell id="104" value="11" style="shape=partialRectangle;html=1;whiteSpace=wrap;connectable=0;fillColor=none;top=0;left=0;bottom=0;right=0;overflow=hidden;" vertex="1" parent="95">
                    <mxGeometry x="284" width="35" height="29" as="geometry"/>
                </mxCell>
                <mxCell id="105" value="t" style="shape=partialRectangle;html=1;whiteSpace=wrap;connectable=0;fillColor=#f8cecc;top=0;left=0;bottom=0;right=0;overflow=hidden;strokeColor=#b85450;" vertex="1" parent="95">
                    <mxGeometry x="319" width="36" height="29" as="geometry"/>
                </mxCell>
                <mxCell id="106" value="a" style="shape=partialRectangle;html=1;whiteSpace=wrap;connectable=0;fillColor=#f8cecc;top=0;left=0;bottom=0;right=0;overflow=hidden;strokeColor=#b85450;" vertex="1" parent="95">
                    <mxGeometry x="355" width="35" height="29" as="geometry"/>
                </mxCell>
                <mxCell id="107" value="g" style="shape=partialRectangle;html=1;whiteSpace=wrap;connectable=0;fillColor=#f8cecc;top=0;left=0;bottom=0;right=0;overflow=hidden;strokeColor=#b85450;" vertex="1" parent="95">
                    <mxGeometry x="390" width="36" height="29" as="geometry"/>
                </mxCell>
                <mxCell id="108" value="s" style="shape=partialRectangle;html=1;whiteSpace=wrap;connectable=0;fillColor=#f8cecc;top=0;left=0;bottom=0;right=0;overflow=hidden;strokeColor=#b85450;" vertex="1" parent="95">
                    <mxGeometry x="426" width="35" height="29" as="geometry"/>
                </mxCell>
                <mxCell id="109" value=":" style="shape=partialRectangle;html=1;whiteSpace=wrap;connectable=0;fillColor=#f8cecc;top=0;left=0;bottom=0;right=0;overflow=hidden;strokeColor=#b85450;" vertex="1" parent="95">
                    <mxGeometry x="461" width="36" height="29" as="geometry"/>
                </mxCell>
                <mxCell id="110" value="1" style="shape=partialRectangle;html=1;whiteSpace=wrap;connectable=0;fillColor=#f8cecc;top=0;left=0;bottom=0;right=0;overflow=hidden;strokeColor=#b85450;" vertex="1" parent="95">
                    <mxGeometry x="497" width="36" height="29" as="geometry"/>
                </mxCell>
                <mxCell id="111" value="," style="shape=partialRectangle;html=1;whiteSpace=wrap;connectable=0;fillColor=#f8cecc;top=0;left=0;bottom=0;right=0;overflow=hidden;strokeColor=#b85450;" vertex="1" parent="95">
                    <mxGeometry x="533" width="36" height="29" as="geometry"/>
                </mxCell>
                <mxCell id="112" style="shape=partialRectangle;html=1;whiteSpace=wrap;collapsible=0;dropTarget=0;pointerEvents=0;fillColor=none;top=0;left=0;bottom=0;right=0;points=[[0,0.5],[1,0.5]];portConstraint=eastwest;" vertex="1" parent="43">
                    <mxGeometry y="119" width="568.89" height="31" as="geometry"/>
                </mxCell>
                <mxCell id="113" value="32" style="shape=partialRectangle;html=1;whiteSpace=wrap;connectable=0;fillColor=none;top=0;left=0;bottom=0;right=0;overflow=hidden;" vertex="1" parent="112">
                    <mxGeometry width="35" height="31" as="geometry"/>
                </mxCell>
                <mxCell id="114" value="33" style="shape=partialRectangle;html=1;whiteSpace=wrap;connectable=0;fillColor=none;top=0;left=0;bottom=0;right=0;overflow=hidden;" vertex="1" parent="112">
                    <mxGeometry x="35" width="36" height="31" as="geometry"/>
                </mxCell>
                <mxCell id="115" value="34" style="shape=partialRectangle;html=1;whiteSpace=wrap;connectable=0;fillColor=none;top=0;left=0;bottom=0;right=0;overflow=hidden;" vertex="1" parent="112">
                    <mxGeometry x="71" width="35" height="31" as="geometry"/>
                </mxCell>
                <mxCell id="116" value="35" style="shape=partialRectangle;html=1;whiteSpace=wrap;connectable=0;fillColor=none;top=0;left=0;bottom=0;right=0;overflow=hidden;" vertex="1" parent="112">
                    <mxGeometry x="106" width="36" height="31" as="geometry"/>
                </mxCell>
                <mxCell id="117" style="shape=partialRectangle;html=1;whiteSpace=wrap;connectable=0;fillColor=none;top=0;left=0;bottom=0;right=0;overflow=hidden;" vertex="1" parent="112">
                    <mxGeometry x="142" width="35" height="31" as="geometry"/>
                </mxCell>
                <mxCell id="118" style="shape=partialRectangle;html=1;whiteSpace=wrap;connectable=0;fillColor=none;top=0;left=0;bottom=0;right=0;overflow=hidden;" vertex="1" parent="112">
                    <mxGeometry x="177" width="36" height="31" as="geometry"/>
                </mxCell>
                <mxCell id="119" style="shape=partialRectangle;html=1;whiteSpace=wrap;connectable=0;fillColor=none;top=0;left=0;bottom=0;right=0;overflow=hidden;" vertex="1" parent="112">
                    <mxGeometry x="213" width="35" height="31" as="geometry"/>
                </mxCell>
                <mxCell id="120" style="shape=partialRectangle;html=1;whiteSpace=wrap;connectable=0;fillColor=none;top=0;left=0;bottom=0;right=0;overflow=hidden;" vertex="1" parent="112">
                    <mxGeometry x="248" width="36" height="31" as="geometry"/>
                </mxCell>
                <mxCell id="121" style="shape=partialRectangle;html=1;whiteSpace=wrap;connectable=0;fillColor=none;top=0;left=0;bottom=0;right=0;overflow=hidden;" vertex="1" parent="112">
                    <mxGeometry x="284" width="35" height="31" as="geometry"/>
                </mxCell>
                <mxCell id="122" style="shape=partialRectangle;html=1;whiteSpace=wrap;connectable=0;fillColor=none;top=0;left=0;bottom=0;right=0;overflow=hidden;" vertex="1" parent="112">
                    <mxGeometry x="319" width="36" height="31" as="geometry"/>
                </mxCell>
                <mxCell id="123" style="shape=partialRectangle;html=1;whiteSpace=wrap;connectable=0;fillColor=none;top=0;left=0;bottom=0;right=0;overflow=hidden;" vertex="1" parent="112">
                    <mxGeometry x="355" width="35" height="31" as="geometry"/>
                </mxCell>
                <mxCell id="124" style="shape=partialRectangle;html=1;whiteSpace=wrap;connectable=0;fillColor=none;top=0;left=0;bottom=0;right=0;overflow=hidden;" vertex="1" parent="112">
                    <mxGeometry x="390" width="36" height="31" as="geometry"/>
                </mxCell>
                <mxCell id="125" style="shape=partialRectangle;html=1;whiteSpace=wrap;connectable=0;fillColor=none;top=0;left=0;bottom=0;right=0;overflow=hidden;" vertex="1" parent="112">
                    <mxGeometry x="426" width="35" height="31" as="geometry"/>
                </mxCell>
                <mxCell id="126" style="shape=partialRectangle;html=1;whiteSpace=wrap;connectable=0;fillColor=none;top=0;left=0;bottom=0;right=0;overflow=hidden;" vertex="1" parent="112">
                    <mxGeometry x="461" width="36" height="31" as="geometry"/>
                </mxCell>
                <mxCell id="127" style="shape=partialRectangle;html=1;whiteSpace=wrap;connectable=0;fillColor=none;top=0;left=0;bottom=0;right=0;overflow=hidden;" vertex="1" parent="112">
                    <mxGeometry x="497" width="36" height="31" as="geometry"/>
                </mxCell>
                <mxCell id="128" value="47" style="shape=partialRectangle;html=1;whiteSpace=wrap;connectable=0;fillColor=none;top=0;left=0;bottom=0;right=0;overflow=hidden;" vertex="1" parent="112">
                    <mxGeometry x="533" width="36" height="31" as="geometry"/>
                </mxCell>
                <mxCell id="129" value="" style="shape=partialRectangle;html=1;whiteSpace=wrap;collapsible=0;dropTarget=0;pointerEvents=0;fillColor=#f8cecc;top=0;left=0;bottom=0;right=0;points=[[0,0.5],[1,0.5]];portConstraint=eastwest;strokeColor=#b85450;" vertex="1" parent="43">
                    <mxGeometry y="150" width="568.89" height="30" as="geometry"/>
                </mxCell>
                <mxCell id="130" value="2" style="shape=partialRectangle;html=1;whiteSpace=wrap;connectable=0;fillColor=#f8cecc;top=0;left=0;bottom=0;right=0;overflow=hidden;strokeColor=#b85450;" vertex="1" parent="129">
                    <mxGeometry width="35" height="30" as="geometry"/>
                </mxCell>
                <mxCell id="131" value="," style="shape=partialRectangle;html=1;whiteSpace=wrap;connectable=0;fillColor=#f8cecc;top=0;left=0;bottom=0;right=0;overflow=hidden;strokeColor=#b85450;" vertex="1" parent="129">
                    <mxGeometry x="35" width="36" height="30" as="geometry"/>
                </mxCell>
                <mxCell id="132" value="3" style="shape=partialRectangle;html=1;whiteSpace=wrap;connectable=0;fillColor=#f8cecc;top=0;left=0;bottom=0;right=0;overflow=hidden;strokeColor=#b85450;" vertex="1" parent="129">
                    <mxGeometry x="71" width="35" height="30" as="geometry"/>
                </mxCell>
                <mxCell id="133" value=";" style="shape=partialRectangle;html=1;whiteSpace=wrap;connectable=0;fillColor=#f8cecc;top=0;left=0;bottom=0;right=0;overflow=hidden;strokeColor=#b85450;" vertex="1" parent="129">
                    <mxGeometry x="106" width="36" height="30" as="geometry"/>
                </mxCell>
                <mxCell id="134" style="shape=partialRectangle;html=1;whiteSpace=wrap;connectable=0;fillColor=none;top=0;left=0;bottom=0;right=0;overflow=hidden;" vertex="1" parent="129">
                    <mxGeometry x="142" width="35" height="30" as="geometry"/>
                </mxCell>
                <mxCell id="135" style="shape=partialRectangle;html=1;whiteSpace=wrap;connectable=0;fillColor=none;top=0;left=0;bottom=0;right=0;overflow=hidden;" vertex="1" parent="129">
                    <mxGeometry x="177" width="36" height="30" as="geometry"/>
                </mxCell>
                <mxCell id="136" style="shape=partialRectangle;html=1;whiteSpace=wrap;connectable=0;fillColor=none;top=0;left=0;bottom=0;right=0;overflow=hidden;" vertex="1" parent="129">
                    <mxGeometry x="213" width="35" height="30" as="geometry"/>
                </mxCell>
                <mxCell id="137" style="shape=partialRectangle;html=1;whiteSpace=wrap;connectable=0;fillColor=none;top=0;left=0;bottom=0;right=0;overflow=hidden;" vertex="1" parent="129">
                    <mxGeometry x="248" width="36" height="30" as="geometry"/>
                </mxCell>
                <mxCell id="138" style="shape=partialRectangle;html=1;whiteSpace=wrap;connectable=0;fillColor=none;top=0;left=0;bottom=0;right=0;overflow=hidden;" vertex="1" parent="129">
                    <mxGeometry x="284" width="35" height="30" as="geometry"/>
                </mxCell>
                <mxCell id="139" style="shape=partialRectangle;html=1;whiteSpace=wrap;connectable=0;fillColor=none;top=0;left=0;bottom=0;right=0;overflow=hidden;" vertex="1" parent="129">
                    <mxGeometry x="319" width="36" height="30" as="geometry"/>
                </mxCell>
                <mxCell id="140" style="shape=partialRectangle;html=1;whiteSpace=wrap;connectable=0;fillColor=none;top=0;left=0;bottom=0;right=0;overflow=hidden;" vertex="1" parent="129">
                    <mxGeometry x="355" width="35" height="30" as="geometry"/>
                </mxCell>
                <mxCell id="141" style="shape=partialRectangle;html=1;whiteSpace=wrap;connectable=0;fillColor=none;top=0;left=0;bottom=0;right=0;overflow=hidden;" vertex="1" parent="129">
                    <mxGeometry x="390" width="36" height="30" as="geometry"/>
                </mxCell>
                <mxCell id="142" style="shape=partialRectangle;html=1;whiteSpace=wrap;connectable=0;fillColor=none;top=0;left=0;bottom=0;right=0;overflow=hidden;" vertex="1" parent="129">
                    <mxGeometry x="426" width="35" height="30" as="geometry"/>
                </mxCell>
                <mxCell id="143" style="shape=partialRectangle;html=1;whiteSpace=wrap;connectable=0;fillColor=none;top=0;left=0;bottom=0;right=0;overflow=hidden;" vertex="1" parent="129">
                    <mxGeometry x="461" width="36" height="30" as="geometry"/>
                </mxCell>
                <mxCell id="144" value="" style="shape=partialRectangle;html=1;whiteSpace=wrap;connectable=0;fillColor=none;top=0;left=0;bottom=0;right=0;overflow=hidden;" vertex="1" parent="129">
                    <mxGeometry x="497" width="36" height="30" as="geometry"/>
                </mxCell>
                <mxCell id="145" value="" style="shape=partialRectangle;html=1;whiteSpace=wrap;connectable=0;fillColor=none;top=0;left=0;bottom=0;right=0;overflow=hidden;" vertex="1" parent="129">
                    <mxGeometry x="533" width="36" height="30" as="geometry"/>
                </mxCell>
                <mxCell id="432" style="shape=partialRectangle;html=1;whiteSpace=wrap;collapsible=0;dropTarget=0;pointerEvents=0;top=0;left=0;bottom=0;right=0;points=[[0,0.5],[1,0.5]];portConstraint=eastwest;fillColor=none;" vertex="1" parent="43">
                    <mxGeometry y="180" width="568.89" height="30" as="geometry"/>
                </mxCell>
                <mxCell id="433" style="shape=partialRectangle;html=1;whiteSpace=wrap;connectable=0;top=0;left=0;bottom=0;right=0;overflow=hidden;fillColor=none;" vertex="1" parent="432">
                    <mxGeometry width="35" height="30" as="geometry"/>
                </mxCell>
                <mxCell id="434" style="shape=partialRectangle;html=1;whiteSpace=wrap;connectable=0;top=0;left=0;bottom=0;right=0;overflow=hidden;fillColor=none;" vertex="1" parent="432">
                    <mxGeometry x="35" width="36" height="30" as="geometry"/>
                </mxCell>
                <mxCell id="435" style="shape=partialRectangle;html=1;whiteSpace=wrap;connectable=0;top=0;left=0;bottom=0;right=0;overflow=hidden;fillColor=none;" vertex="1" parent="432">
                    <mxGeometry x="71" width="35" height="30" as="geometry"/>
                </mxCell>
                <mxCell id="436" style="shape=partialRectangle;html=1;whiteSpace=wrap;connectable=0;top=0;left=0;bottom=0;right=0;overflow=hidden;fillColor=none;" vertex="1" parent="432">
                    <mxGeometry x="106" width="36" height="30" as="geometry"/>
                </mxCell>
                <mxCell id="437" style="shape=partialRectangle;html=1;whiteSpace=wrap;connectable=0;fillColor=none;top=0;left=0;bottom=0;right=0;overflow=hidden;" vertex="1" parent="432">
                    <mxGeometry x="142" width="35" height="30" as="geometry"/>
                </mxCell>
                <mxCell id="438" style="shape=partialRectangle;html=1;whiteSpace=wrap;connectable=0;fillColor=none;top=0;left=0;bottom=0;right=0;overflow=hidden;" vertex="1" parent="432">
                    <mxGeometry x="177" width="36" height="30" as="geometry"/>
                </mxCell>
                <mxCell id="439" style="shape=partialRectangle;html=1;whiteSpace=wrap;connectable=0;fillColor=none;top=0;left=0;bottom=0;right=0;overflow=hidden;" vertex="1" parent="432">
                    <mxGeometry x="213" width="35" height="30" as="geometry"/>
                </mxCell>
                <mxCell id="440" style="shape=partialRectangle;html=1;whiteSpace=wrap;connectable=0;fillColor=none;top=0;left=0;bottom=0;right=0;overflow=hidden;" vertex="1" parent="432">
                    <mxGeometry x="248" width="36" height="30" as="geometry"/>
                </mxCell>
                <mxCell id="441" style="shape=partialRectangle;html=1;whiteSpace=wrap;connectable=0;fillColor=none;top=0;left=0;bottom=0;right=0;overflow=hidden;" vertex="1" parent="432">
                    <mxGeometry x="284" width="35" height="30" as="geometry"/>
                </mxCell>
                <mxCell id="442" style="shape=partialRectangle;html=1;whiteSpace=wrap;connectable=0;fillColor=none;top=0;left=0;bottom=0;right=0;overflow=hidden;" vertex="1" parent="432">
                    <mxGeometry x="319" width="36" height="30" as="geometry"/>
                </mxCell>
                <mxCell id="443" style="shape=partialRectangle;html=1;whiteSpace=wrap;connectable=0;fillColor=none;top=0;left=0;bottom=0;right=0;overflow=hidden;" vertex="1" parent="432">
                    <mxGeometry x="355" width="35" height="30" as="geometry"/>
                </mxCell>
                <mxCell id="444" value="59" style="shape=partialRectangle;html=1;whiteSpace=wrap;connectable=0;fillColor=none;top=0;left=0;bottom=0;right=0;overflow=hidden;" vertex="1" parent="432">
                    <mxGeometry x="390" width="36" height="30" as="geometry"/>
                </mxCell>
                <mxCell id="445" value="60" style="shape=partialRectangle;html=1;whiteSpace=wrap;connectable=0;fillColor=none;top=0;left=0;bottom=0;right=0;overflow=hidden;" vertex="1" parent="432">
                    <mxGeometry x="426" width="35" height="30" as="geometry"/>
                </mxCell>
                <mxCell id="446" value="61" style="shape=partialRectangle;html=1;whiteSpace=wrap;connectable=0;fillColor=none;top=0;left=0;bottom=0;right=0;overflow=hidden;" vertex="1" parent="432">
                    <mxGeometry x="461" width="36" height="30" as="geometry"/>
                </mxCell>
                <mxCell id="447" value="62" style="shape=partialRectangle;html=1;whiteSpace=wrap;connectable=0;fillColor=none;top=0;left=0;bottom=0;right=0;overflow=hidden;" vertex="1" parent="432">
                    <mxGeometry x="497" width="36" height="30" as="geometry"/>
                </mxCell>
                <mxCell id="448" value="63" style="shape=partialRectangle;html=1;whiteSpace=wrap;connectable=0;fillColor=none;top=0;left=0;bottom=0;right=0;overflow=hidden;" vertex="1" parent="432">
                    <mxGeometry x="533" width="36" height="30" as="geometry"/>
                </mxCell>
                <mxCell id="466" style="shape=partialRectangle;html=1;whiteSpace=wrap;collapsible=0;dropTarget=0;pointerEvents=0;top=0;left=0;bottom=0;right=0;points=[[0,0.5],[1,0.5]];portConstraint=eastwest;fillColor=#f8cecc;strokeColor=#b85450;" vertex="1" parent="43">
                    <mxGeometry y="210" width="568.89" height="30" as="geometry"/>
                </mxCell>
                <mxCell id="467" style="shape=partialRectangle;html=1;whiteSpace=wrap;connectable=0;top=0;left=0;bottom=0;right=0;overflow=hidden;fillColor=#f8cecc;strokeColor=#b85450;" vertex="1" parent="466">
                    <mxGeometry width="35" height="30" as="geometry"/>
                </mxCell>
                <mxCell id="468" style="shape=partialRectangle;html=1;whiteSpace=wrap;connectable=0;top=0;left=0;bottom=0;right=0;overflow=hidden;fillColor=#f8cecc;strokeColor=#b85450;" vertex="1" parent="466">
                    <mxGeometry x="35" width="36" height="30" as="geometry"/>
                </mxCell>
                <mxCell id="469" style="shape=partialRectangle;html=1;whiteSpace=wrap;connectable=0;top=0;left=0;bottom=0;right=0;overflow=hidden;fillColor=#f8cecc;strokeColor=#b85450;" vertex="1" parent="466">
                    <mxGeometry x="71" width="35" height="30" as="geometry"/>
                </mxCell>
                <mxCell id="470" style="shape=partialRectangle;html=1;whiteSpace=wrap;connectable=0;top=0;left=0;bottom=0;right=0;overflow=hidden;fillColor=#f8cecc;strokeColor=#b85450;" vertex="1" parent="466">
                    <mxGeometry x="106" width="36" height="30" as="geometry"/>
                </mxCell>
                <mxCell id="471" style="shape=partialRectangle;html=1;whiteSpace=wrap;connectable=0;fillColor=none;top=0;left=0;bottom=0;right=0;overflow=hidden;" vertex="1" parent="466">
                    <mxGeometry x="142" width="35" height="30" as="geometry"/>
                </mxCell>
                <mxCell id="472" style="shape=partialRectangle;html=1;whiteSpace=wrap;connectable=0;fillColor=none;top=0;left=0;bottom=0;right=0;overflow=hidden;" vertex="1" parent="466">
                    <mxGeometry x="177" width="36" height="30" as="geometry"/>
                </mxCell>
                <mxCell id="473" style="shape=partialRectangle;html=1;whiteSpace=wrap;connectable=0;fillColor=none;top=0;left=0;bottom=0;right=0;overflow=hidden;" vertex="1" parent="466">
                    <mxGeometry x="213" width="35" height="30" as="geometry"/>
                </mxCell>
                <mxCell id="474" style="shape=partialRectangle;html=1;whiteSpace=wrap;connectable=0;fillColor=none;top=0;left=0;bottom=0;right=0;overflow=hidden;" vertex="1" parent="466">
                    <mxGeometry x="248" width="36" height="30" as="geometry"/>
                </mxCell>
                <mxCell id="475" style="shape=partialRectangle;html=1;whiteSpace=wrap;connectable=0;fillColor=none;top=0;left=0;bottom=0;right=0;overflow=hidden;" vertex="1" parent="466">
                    <mxGeometry x="284" width="35" height="30" as="geometry"/>
                </mxCell>
                <mxCell id="476" style="shape=partialRectangle;html=1;whiteSpace=wrap;connectable=0;fillColor=none;top=0;left=0;bottom=0;right=0;overflow=hidden;" vertex="1" parent="466">
                    <mxGeometry x="319" width="36" height="30" as="geometry"/>
                </mxCell>
                <mxCell id="477" style="shape=partialRectangle;html=1;whiteSpace=wrap;connectable=0;fillColor=none;top=0;left=0;bottom=0;right=0;overflow=hidden;" vertex="1" parent="466">
                    <mxGeometry x="355" width="35" height="30" as="geometry"/>
                </mxCell>
                <mxCell id="478" value="磨" style="shape=partialRectangle;html=1;whiteSpace=wrap;connectable=0;fillColor=none;top=0;left=0;bottom=0;right=0;overflow=hidden;" vertex="1" parent="466">
                    <mxGeometry x="390" width="36" height="30" as="geometry"/>
                </mxCell>
                <mxCell id="479" value="砂" style="shape=partialRectangle;html=1;whiteSpace=wrap;connectable=0;fillColor=none;top=0;left=0;bottom=0;right=0;overflow=hidden;" vertex="1" parent="466">
                    <mxGeometry x="426" width="35" height="30" as="geometry"/>
                </mxCell>
                <mxCell id="480" value="黑" style="shape=partialRectangle;html=1;whiteSpace=wrap;connectable=0;fillColor=none;top=0;left=0;bottom=0;right=0;overflow=hidden;" vertex="1" parent="466">
                    <mxGeometry x="461" width="36" height="30" as="geometry"/>
                </mxCell>
                <mxCell id="481" value="3" style="shape=partialRectangle;html=1;whiteSpace=wrap;connectable=0;fillColor=#f5f5f5;top=0;left=0;bottom=0;right=0;overflow=hidden;strokeColor=#666666;fontColor=#333333;" vertex="1" parent="466">
                    <mxGeometry x="497" width="36" height="30" as="geometry"/>
                </mxCell>
                <mxCell id="482" value="土" style="shape=partialRectangle;html=1;whiteSpace=wrap;connectable=0;fillColor=none;top=0;left=0;bottom=0;right=0;overflow=hidden;" vertex="1" parent="466">
                    <mxGeometry x="533" width="36" height="30" as="geometry"/>
                </mxCell>
                <mxCell id="483" style="shape=partialRectangle;html=1;whiteSpace=wrap;collapsible=0;dropTarget=0;pointerEvents=0;top=0;left=0;bottom=0;right=0;points=[[0,0.5],[1,0.5]];portConstraint=eastwest;fillColor=none;" vertex="1" parent="43">
                    <mxGeometry y="240" width="568.89" height="30" as="geometry"/>
                </mxCell>
                <mxCell id="484" value="64" style="shape=partialRectangle;html=1;whiteSpace=wrap;connectable=0;top=0;left=0;bottom=0;right=0;overflow=hidden;strokeColor=#b85450;fillColor=none;" vertex="1" parent="483">
                    <mxGeometry width="35" height="30" as="geometry"/>
                </mxCell>
                <mxCell id="485" value="65" style="shape=partialRectangle;html=1;whiteSpace=wrap;connectable=0;top=0;left=0;bottom=0;right=0;overflow=hidden;strokeColor=#b85450;fillColor=none;" vertex="1" parent="483">
                    <mxGeometry x="35" width="36" height="30" as="geometry"/>
                </mxCell>
                <mxCell id="486" value="66" style="shape=partialRectangle;html=1;whiteSpace=wrap;connectable=0;top=0;left=0;bottom=0;right=0;overflow=hidden;strokeColor=#b85450;fillColor=none;" vertex="1" parent="483">
                    <mxGeometry x="71" width="35" height="30" as="geometry"/>
                </mxCell>
                <mxCell id="487" style="shape=partialRectangle;html=1;whiteSpace=wrap;connectable=0;top=0;left=0;bottom=0;right=0;overflow=hidden;strokeColor=#b85450;fillColor=none;" vertex="1" parent="483">
                    <mxGeometry x="106" width="36" height="30" as="geometry"/>
                </mxCell>
                <mxCell id="488" style="shape=partialRectangle;html=1;whiteSpace=wrap;connectable=0;fillColor=none;top=0;left=0;bottom=0;right=0;overflow=hidden;" vertex="1" parent="483">
                    <mxGeometry x="142" width="35" height="30" as="geometry"/>
                </mxCell>
                <mxCell id="489" style="shape=partialRectangle;html=1;whiteSpace=wrap;connectable=0;fillColor=none;top=0;left=0;bottom=0;right=0;overflow=hidden;" vertex="1" parent="483">
                    <mxGeometry x="177" width="36" height="30" as="geometry"/>
                </mxCell>
                <mxCell id="490" style="shape=partialRectangle;html=1;whiteSpace=wrap;connectable=0;fillColor=none;top=0;left=0;bottom=0;right=0;overflow=hidden;" vertex="1" parent="483">
                    <mxGeometry x="213" width="35" height="30" as="geometry"/>
                </mxCell>
                <mxCell id="491" style="shape=partialRectangle;html=1;whiteSpace=wrap;connectable=0;fillColor=none;top=0;left=0;bottom=0;right=0;overflow=hidden;" vertex="1" parent="483">
                    <mxGeometry x="248" width="36" height="30" as="geometry"/>
                </mxCell>
                <mxCell id="492" style="shape=partialRectangle;html=1;whiteSpace=wrap;connectable=0;fillColor=none;top=0;left=0;bottom=0;right=0;overflow=hidden;" vertex="1" parent="483">
                    <mxGeometry x="284" width="35" height="30" as="geometry"/>
                </mxCell>
                <mxCell id="493" style="shape=partialRectangle;html=1;whiteSpace=wrap;connectable=0;fillColor=none;top=0;left=0;bottom=0;right=0;overflow=hidden;" vertex="1" parent="483">
                    <mxGeometry x="319" width="36" height="30" as="geometry"/>
                </mxCell>
                <mxCell id="494" style="shape=partialRectangle;html=1;whiteSpace=wrap;connectable=0;fillColor=none;top=0;left=0;bottom=0;right=0;overflow=hidden;" vertex="1" parent="483">
                    <mxGeometry x="355" width="35" height="30" as="geometry"/>
                </mxCell>
                <mxCell id="495" style="shape=partialRectangle;html=1;whiteSpace=wrap;connectable=0;fillColor=none;top=0;left=0;bottom=0;right=0;overflow=hidden;" vertex="1" parent="483">
                    <mxGeometry x="390" width="36" height="30" as="geometry"/>
                </mxCell>
                <mxCell id="496" style="shape=partialRectangle;html=1;whiteSpace=wrap;connectable=0;fillColor=none;top=0;left=0;bottom=0;right=0;overflow=hidden;" vertex="1" parent="483">
                    <mxGeometry x="426" width="35" height="30" as="geometry"/>
                </mxCell>
                <mxCell id="497" style="shape=partialRectangle;html=1;whiteSpace=wrap;connectable=0;fillColor=none;top=0;left=0;bottom=0;right=0;overflow=hidden;" vertex="1" parent="483">
                    <mxGeometry x="461" width="36" height="30" as="geometry"/>
                </mxCell>
                <mxCell id="498" style="shape=partialRectangle;html=1;whiteSpace=wrap;connectable=0;fillColor=none;top=0;left=0;bottom=0;right=0;overflow=hidden;" vertex="1" parent="483">
                    <mxGeometry x="497" width="36" height="30" as="geometry"/>
                </mxCell>
                <mxCell id="499" style="shape=partialRectangle;html=1;whiteSpace=wrap;connectable=0;fillColor=none;top=0;left=0;bottom=0;right=0;overflow=hidden;" vertex="1" parent="483">
                    <mxGeometry x="533" width="36" height="30" as="geometry"/>
                </mxCell>
                <mxCell id="500" style="shape=partialRectangle;html=1;whiteSpace=wrap;collapsible=0;dropTarget=0;pointerEvents=0;top=0;left=0;bottom=0;right=0;points=[[0,0.5],[1,0.5]];portConstraint=eastwest;fillColor=#f8cecc;strokeColor=#b85450;" vertex="1" parent="43">
                    <mxGeometry y="270" width="568.89" height="30" as="geometry"/>
                </mxCell>
                <mxCell id="501" value="豪" style="shape=partialRectangle;html=1;whiteSpace=wrap;connectable=0;top=0;left=0;bottom=0;right=0;overflow=hidden;fillColor=#f8cecc;strokeColor=#b85450;" vertex="1" parent="500">
                    <mxGeometry width="35" height="30" as="geometry"/>
                </mxCell>
                <mxCell id="502" value="金" style="shape=partialRectangle;html=1;whiteSpace=wrap;connectable=0;top=0;left=0;bottom=0;right=0;overflow=hidden;fillColor=#f8cecc;strokeColor=#b85450;" vertex="1" parent="500">
                    <mxGeometry x="35" width="36" height="30" as="geometry"/>
                </mxCell>
                <mxCell id="503" value="9" style="shape=partialRectangle;html=1;whiteSpace=wrap;connectable=0;top=0;left=0;bottom=0;right=0;overflow=hidden;fillColor=#f5f5f5;strokeColor=#666666;fontColor=#333333;" vertex="1" parent="500">
                    <mxGeometry x="71" width="35" height="30" as="geometry"/>
                </mxCell>
                <mxCell id="504" style="shape=partialRectangle;html=1;whiteSpace=wrap;connectable=0;top=0;left=0;bottom=0;right=0;overflow=hidden;fillColor=#f8cecc;strokeColor=#b85450;" vertex="1" parent="500">
                    <mxGeometry x="106" width="36" height="30" as="geometry"/>
                </mxCell>
                <mxCell id="505" style="shape=partialRectangle;html=1;whiteSpace=wrap;connectable=0;fillColor=none;top=0;left=0;bottom=0;right=0;overflow=hidden;" vertex="1" parent="500">
                    <mxGeometry x="142" width="35" height="30" as="geometry"/>
                </mxCell>
                <mxCell id="506" style="shape=partialRectangle;html=1;whiteSpace=wrap;connectable=0;fillColor=none;top=0;left=0;bottom=0;right=0;overflow=hidden;" vertex="1" parent="500">
                    <mxGeometry x="177" width="36" height="30" as="geometry"/>
                </mxCell>
                <mxCell id="507" style="shape=partialRectangle;html=1;whiteSpace=wrap;connectable=0;fillColor=none;top=0;left=0;bottom=0;right=0;overflow=hidden;" vertex="1" parent="500">
                    <mxGeometry x="213" width="35" height="30" as="geometry"/>
                </mxCell>
                <mxCell id="508" style="shape=partialRectangle;html=1;whiteSpace=wrap;connectable=0;fillColor=none;top=0;left=0;bottom=0;right=0;overflow=hidden;" vertex="1" parent="500">
                    <mxGeometry x="248" width="36" height="30" as="geometry"/>
                </mxCell>
                <mxCell id="509" style="shape=partialRectangle;html=1;whiteSpace=wrap;connectable=0;fillColor=none;top=0;left=0;bottom=0;right=0;overflow=hidden;" vertex="1" parent="500">
                    <mxGeometry x="284" width="35" height="30" as="geometry"/>
                </mxCell>
                <mxCell id="510" style="shape=partialRectangle;html=1;whiteSpace=wrap;connectable=0;fillColor=none;top=0;left=0;bottom=0;right=0;overflow=hidden;" vertex="1" parent="500">
                    <mxGeometry x="319" width="36" height="30" as="geometry"/>
                </mxCell>
                <mxCell id="511" style="shape=partialRectangle;html=1;whiteSpace=wrap;connectable=0;fillColor=none;top=0;left=0;bottom=0;right=0;overflow=hidden;" vertex="1" parent="500">
                    <mxGeometry x="355" width="35" height="30" as="geometry"/>
                </mxCell>
                <mxCell id="512" style="shape=partialRectangle;html=1;whiteSpace=wrap;connectable=0;fillColor=none;top=0;left=0;bottom=0;right=0;overflow=hidden;" vertex="1" parent="500">
                    <mxGeometry x="390" width="36" height="30" as="geometry"/>
                </mxCell>
                <mxCell id="513" style="shape=partialRectangle;html=1;whiteSpace=wrap;connectable=0;fillColor=none;top=0;left=0;bottom=0;right=0;overflow=hidden;" vertex="1" parent="500">
                    <mxGeometry x="426" width="35" height="30" as="geometry"/>
                </mxCell>
                <mxCell id="514" style="shape=partialRectangle;html=1;whiteSpace=wrap;connectable=0;fillColor=none;top=0;left=0;bottom=0;right=0;overflow=hidden;" vertex="1" parent="500">
                    <mxGeometry x="461" width="36" height="30" as="geometry"/>
                </mxCell>
                <mxCell id="515" style="shape=partialRectangle;html=1;whiteSpace=wrap;connectable=0;fillColor=none;top=0;left=0;bottom=0;right=0;overflow=hidden;" vertex="1" parent="500">
                    <mxGeometry x="497" width="36" height="30" as="geometry"/>
                </mxCell>
                <mxCell id="516" style="shape=partialRectangle;html=1;whiteSpace=wrap;connectable=0;fillColor=none;top=0;left=0;bottom=0;right=0;overflow=hidden;" vertex="1" parent="500">
                    <mxGeometry x="533" width="36" height="30" as="geometry"/>
                </mxCell>
                <mxCell id="146" value="" style="shape=table;html=1;whiteSpace=wrap;startSize=0;container=1;collapsible=0;childLayout=tableLayout;" vertex="1" parent="1">
                    <mxGeometry x="200" y="580" width="369" height="110" as="geometry"/>
                </mxCell>
                <mxCell id="147" value="" style="shape=partialRectangle;html=1;whiteSpace=wrap;collapsible=0;dropTarget=0;pointerEvents=0;fillColor=none;top=0;left=0;bottom=0;right=0;points=[[0,0.5],[1,0.5]];portConstraint=eastwest;" vertex="1" parent="146">
                    <mxGeometry width="369" height="37" as="geometry"/>
                </mxCell>
                <mxCell id="183" value="..." style="shape=partialRectangle;html=1;whiteSpace=wrap;connectable=0;fillColor=none;top=0;left=0;bottom=0;right=0;overflow=hidden;" vertex="1" parent="147">
                    <mxGeometry width="37" height="37" as="geometry"/>
                </mxCell>
                <mxCell id="198" value="101" style="shape=partialRectangle;html=1;whiteSpace=wrap;connectable=0;fillColor=none;top=0;left=0;bottom=0;right=0;overflow=hidden;" vertex="1" parent="147">
                    <mxGeometry x="37" width="37" height="37" as="geometry"/>
                </mxCell>
                <mxCell id="195" value="102" style="shape=partialRectangle;html=1;whiteSpace=wrap;connectable=0;fillColor=none;top=0;left=0;bottom=0;right=0;overflow=hidden;" vertex="1" parent="147">
                    <mxGeometry x="74" width="37" height="37" as="geometry"/>
                </mxCell>
                <mxCell id="192" value="103" style="shape=partialRectangle;html=1;whiteSpace=wrap;connectable=0;fillColor=none;top=0;left=0;bottom=0;right=0;overflow=hidden;" vertex="1" parent="147">
                    <mxGeometry x="111" width="37" height="37" as="geometry"/>
                </mxCell>
                <mxCell id="148" value="104" style="shape=partialRectangle;html=1;whiteSpace=wrap;connectable=0;fillColor=none;top=0;left=0;bottom=0;right=0;overflow=hidden;" vertex="1" parent="147">
                    <mxGeometry x="148" width="37" height="37" as="geometry"/>
                </mxCell>
                <mxCell id="149" value="105" style="shape=partialRectangle;html=1;whiteSpace=wrap;connectable=0;fillColor=none;top=0;left=0;bottom=0;right=0;overflow=hidden;" vertex="1" parent="147">
                    <mxGeometry x="185" width="36" height="37" as="geometry"/>
                </mxCell>
                <mxCell id="150" value="..." style="shape=partialRectangle;html=1;whiteSpace=wrap;connectable=0;fillColor=none;top=0;left=0;bottom=0;right=0;overflow=hidden;" vertex="1" parent="147">
                    <mxGeometry x="221" width="37" height="37" as="geometry"/>
                </mxCell>
                <mxCell id="159" value="163" style="shape=partialRectangle;html=1;whiteSpace=wrap;connectable=0;fillColor=none;top=0;left=0;bottom=0;right=0;overflow=hidden;" vertex="1" parent="147">
                    <mxGeometry x="258" width="37" height="37" as="geometry"/>
                </mxCell>
                <mxCell id="162" value="164" style="shape=partialRectangle;html=1;whiteSpace=wrap;connectable=0;fillColor=none;top=0;left=0;bottom=0;right=0;overflow=hidden;" vertex="1" parent="147">
                    <mxGeometry x="295" width="37" height="37" as="geometry"/>
                </mxCell>
                <mxCell id="165" value="..." style="shape=partialRectangle;html=1;whiteSpace=wrap;connectable=0;fillColor=none;top=0;left=0;bottom=0;right=0;overflow=hidden;" vertex="1" parent="147">
                    <mxGeometry x="332" width="37" height="37" as="geometry"/>
                </mxCell>
                <mxCell id="151" value="" style="shape=partialRectangle;html=1;whiteSpace=wrap;collapsible=0;dropTarget=0;pointerEvents=0;fillColor=#fff2cc;top=0;left=0;bottom=0;right=0;points=[[0,0.5],[1,0.5]];portConstraint=eastwest;strokeColor=#d6b656;" vertex="1" parent="146">
                    <mxGeometry y="37" width="369" height="36" as="geometry"/>
                </mxCell>
                <mxCell id="184" value="..." style="shape=partialRectangle;html=1;whiteSpace=wrap;connectable=0;fillColor=none;top=0;left=0;bottom=0;right=0;overflow=hidden;" vertex="1" parent="151">
                    <mxGeometry width="37" height="36" as="geometry"/>
                </mxCell>
                <mxCell id="199" value="126" style="shape=partialRectangle;html=1;whiteSpace=wrap;connectable=0;fillColor=none;top=0;left=0;bottom=0;right=0;overflow=hidden;" vertex="1" parent="151">
                    <mxGeometry x="37" width="37" height="36" as="geometry"/>
                </mxCell>
                <mxCell id="196" value="275" style="shape=partialRectangle;html=1;whiteSpace=wrap;connectable=0;fillColor=none;top=0;left=0;bottom=0;right=0;overflow=hidden;" vertex="1" parent="151">
                    <mxGeometry x="74" width="37" height="36" as="geometry"/>
                </mxCell>
                <mxCell id="193" value="354" style="shape=partialRectangle;html=1;whiteSpace=wrap;connectable=0;fillColor=none;top=0;left=0;bottom=0;right=0;overflow=hidden;" vertex="1" parent="151">
                    <mxGeometry x="111" width="37" height="36" as="geometry"/>
                </mxCell>
                <mxCell id="152" value="582" style="shape=partialRectangle;html=1;whiteSpace=wrap;connectable=0;fillColor=none;top=0;left=0;bottom=0;right=0;overflow=hidden;" vertex="1" parent="151">
                    <mxGeometry x="148" width="37" height="36" as="geometry"/>
                </mxCell>
                <mxCell id="153" value="972" style="shape=partialRectangle;html=1;whiteSpace=wrap;connectable=0;fillColor=none;top=0;left=0;bottom=0;right=0;overflow=hidden;" vertex="1" parent="151">
                    <mxGeometry x="185" width="36" height="36" as="geometry"/>
                </mxCell>
                <mxCell id="154" value="..." style="shape=partialRectangle;html=1;whiteSpace=wrap;connectable=0;fillColor=none;top=0;left=0;bottom=0;right=0;overflow=hidden;" vertex="1" parent="151">
                    <mxGeometry x="221" width="37" height="36" as="geometry"/>
                </mxCell>
                <mxCell id="160" value="775" style="shape=partialRectangle;html=1;whiteSpace=wrap;connectable=0;fillColor=none;top=0;left=0;bottom=0;right=0;overflow=hidden;" vertex="1" parent="151">
                    <mxGeometry x="258" width="37" height="36" as="geometry"/>
                </mxCell>
                <mxCell id="163" value="916" style="shape=partialRectangle;html=1;whiteSpace=wrap;connectable=0;fillColor=none;top=0;left=0;bottom=0;right=0;overflow=hidden;" vertex="1" parent="151">
                    <mxGeometry x="295" width="37" height="36" as="geometry"/>
                </mxCell>
                <mxCell id="166" value="..." style="shape=partialRectangle;html=1;whiteSpace=wrap;connectable=0;fillColor=none;top=0;left=0;bottom=0;right=0;overflow=hidden;" vertex="1" parent="151">
                    <mxGeometry x="332" width="37" height="36" as="geometry"/>
                </mxCell>
                <mxCell id="155" value="" style="shape=partialRectangle;html=1;whiteSpace=wrap;collapsible=0;dropTarget=0;pointerEvents=0;fillColor=#fff2cc;top=0;left=0;bottom=0;right=0;points=[[0,0.5],[1,0.5]];portConstraint=eastwest;strokeColor=#d6b656;" vertex="1" parent="146">
                    <mxGeometry y="73" width="369" height="37" as="geometry"/>
                </mxCell>
                <mxCell id="185" value="..." style="shape=partialRectangle;html=1;whiteSpace=wrap;connectable=0;fillColor=none;top=0;left=0;bottom=0;right=0;overflow=hidden;" vertex="1" parent="155">
                    <mxGeometry width="37" height="37" as="geometry"/>
                </mxCell>
                <mxCell id="200" value="3" style="shape=partialRectangle;html=1;whiteSpace=wrap;connectable=0;fillColor=none;top=0;left=0;bottom=0;right=0;overflow=hidden;" vertex="1" parent="155">
                    <mxGeometry x="37" width="37" height="37" as="geometry"/>
                </mxCell>
                <mxCell id="197" value="2" style="shape=partialRectangle;html=1;whiteSpace=wrap;connectable=0;fillColor=none;top=0;left=0;bottom=0;right=0;overflow=hidden;" vertex="1" parent="155">
                    <mxGeometry x="74" width="37" height="37" as="geometry"/>
                </mxCell>
                <mxCell id="194" value="1" style="shape=partialRectangle;html=1;whiteSpace=wrap;connectable=0;fillColor=none;top=0;left=0;bottom=0;right=0;overflow=hidden;" vertex="1" parent="155">
                    <mxGeometry x="111" width="37" height="37" as="geometry"/>
                </mxCell>
                <mxCell id="156" value="0" style="shape=partialRectangle;html=1;whiteSpace=wrap;connectable=0;fillColor=none;top=0;left=0;bottom=0;right=0;overflow=hidden;" vertex="1" parent="155">
                    <mxGeometry x="148" width="37" height="37" as="geometry"/>
                </mxCell>
                <mxCell id="157" value="4" style="shape=partialRectangle;html=1;whiteSpace=wrap;connectable=0;fillColor=none;top=0;left=0;bottom=0;right=0;overflow=hidden;" vertex="1" parent="155">
                    <mxGeometry x="185" width="36" height="37" as="geometry"/>
                </mxCell>
                <mxCell id="158" value="..." style="shape=partialRectangle;html=1;whiteSpace=wrap;connectable=0;fillColor=none;top=0;left=0;bottom=0;right=0;overflow=hidden;" vertex="1" parent="155">
                    <mxGeometry x="221" width="37" height="37" as="geometry"/>
                </mxCell>
                <mxCell id="161" value="10" style="shape=partialRectangle;html=1;whiteSpace=wrap;connectable=0;fillColor=none;top=0;left=0;bottom=0;right=0;overflow=hidden;" vertex="1" parent="155">
                    <mxGeometry x="258" width="37" height="37" as="geometry"/>
                </mxCell>
                <mxCell id="164" value="7" style="shape=partialRectangle;html=1;whiteSpace=wrap;connectable=0;fillColor=#ffe6cc;top=0;left=0;bottom=0;right=0;overflow=hidden;strokeColor=#d79b00;" vertex="1" parent="155">
                    <mxGeometry x="295" width="37" height="37" as="geometry"/>
                </mxCell>
                <mxCell id="167" value="..." style="shape=partialRectangle;html=1;whiteSpace=wrap;connectable=0;fillColor=none;top=0;left=0;bottom=0;right=0;overflow=hidden;" vertex="1" parent="155">
                    <mxGeometry x="332" width="37" height="37" as="geometry"/>
                </mxCell>
                <mxCell id="205" value="" style="endArrow=none;html=1;entryX=0;entryY=1;entryDx=0;entryDy=0;exitX=0.104;exitY=-0.005;exitDx=0;exitDy=0;exitPerimeter=0;" edge="1" parent="1" source="147" target="21">
                    <mxGeometry width="50" height="50" relative="1" as="geometry">
                        <mxPoint x="430" y="620" as="sourcePoint"/>
                        <mxPoint x="480" y="570" as="targetPoint"/>
                    </mxGeometry>
                </mxCell>
                <mxCell id="206" value="" style="endArrow=none;html=1;entryX=0.219;entryY=1.008;entryDx=0;entryDy=0;exitX=0.598;exitY=0.018;exitDx=0;exitDy=0;exitPerimeter=0;entryPerimeter=0;" edge="1" parent="1" source="147" target="21">
                    <mxGeometry width="50" height="50" relative="1" as="geometry">
                        <mxPoint x="248.37599999999998" y="619.815" as="sourcePoint"/>
                        <mxPoint x="242.5" y="560" as="targetPoint"/>
                    </mxGeometry>
                </mxCell>
                <mxCell id="207" value="" style="endArrow=none;html=1;entryX=0.737;entryY=1.01;entryDx=0;entryDy=0;exitX=0.7;exitY=-0.05;exitDx=0;exitDy=0;exitPerimeter=0;entryPerimeter=0;" edge="1" parent="1" source="147" target="34">
                    <mxGeometry width="50" height="50" relative="1" as="geometry">
                        <mxPoint x="258.376" y="629.815" as="sourcePoint"/>
                        <mxPoint x="252.5" y="570" as="targetPoint"/>
                    </mxGeometry>
                </mxCell>
                <mxCell id="208" value="" style="endArrow=none;html=1;entryX=0.989;entryY=0.997;entryDx=0;entryDy=0;entryPerimeter=0;exitX=0.902;exitY=-0.005;exitDx=0;exitDy=0;exitPerimeter=0;" edge="1" parent="1" source="147" target="34">
                    <mxGeometry width="50" height="50" relative="1" as="geometry">
                        <mxPoint x="610" y="600" as="sourcePoint"/>
                        <mxPoint x="262.5" y="580" as="targetPoint"/>
                    </mxGeometry>
                </mxCell>
                <mxCell id="319" value="" style="shape=table;html=1;whiteSpace=wrap;startSize=0;container=1;collapsible=0;childLayout=tableLayout;strokeColor=none;fillColor=none;" vertex="1" parent="1">
                    <mxGeometry x="103" y="580" width="90" height="110" as="geometry"/>
                </mxCell>
                <mxCell id="320" value="" style="shape=partialRectangle;html=1;whiteSpace=wrap;collapsible=0;dropTarget=0;pointerEvents=0;fillColor=none;top=0;left=0;bottom=0;right=0;points=[[0,0.5],[1,0.5]];portConstraint=eastwest;" vertex="1" parent="319">
                    <mxGeometry width="90" height="37" as="geometry"/>
                </mxCell>
                <mxCell id="321" value="数组下标" style="shape=partialRectangle;html=1;whiteSpace=wrap;connectable=0;fillColor=none;top=0;left=0;bottom=0;right=0;overflow=hidden;" vertex="1" parent="320">
                    <mxGeometry width="90" height="37" as="geometry"/>
                </mxCell>
                <mxCell id="331" value="" style="shape=partialRectangle;html=1;whiteSpace=wrap;collapsible=0;dropTarget=0;pointerEvents=0;fillColor=none;top=0;left=0;bottom=0;right=0;points=[[0,0.5],[1,0.5]];portConstraint=eastwest;" vertex="1" parent="319">
                    <mxGeometry y="37" width="90" height="36" as="geometry"/>
                </mxCell>
                <mxCell id="332" value="keyStorage[]" style="shape=partialRectangle;html=1;whiteSpace=wrap;connectable=0;fillColor=none;top=0;left=0;bottom=0;right=0;overflow=hidden;" vertex="1" parent="331">
                    <mxGeometry width="90" height="36" as="geometry"/>
                </mxCell>
                <mxCell id="342" value="" style="shape=partialRectangle;html=1;whiteSpace=wrap;collapsible=0;dropTarget=0;pointerEvents=0;fillColor=none;top=0;left=0;bottom=0;right=0;points=[[0,0.5],[1,0.5]];portConstraint=eastwest;" vertex="1" parent="319">
                    <mxGeometry y="73" width="90" height="37" as="geometry"/>
                </mxCell>
                <mxCell id="343" value="recordStorage[]" style="shape=partialRectangle;html=1;whiteSpace=wrap;connectable=0;fillColor=none;top=0;left=0;bottom=0;right=0;overflow=hidden;" vertex="1" parent="342">
                    <mxGeometry width="90" height="37" as="geometry"/>
                </mxCell>
                <mxCell id="353" value="" style="group" vertex="1" connectable="0" parent="1">
                    <mxGeometry x="833" y="397" width="420" height="182" as="geometry"/>
                </mxCell>
                <mxCell id="270" value="meta head" style="shape=table;startSize=30;container=1;collapsible=0;childLayout=tableLayout;fontStyle=1;align=center;" vertex="1" parent="353">
                    <mxGeometry x="65" width="355" height="142" as="geometry"/>
                </mxCell>
                <mxCell id="271" value="" style="shape=partialRectangle;html=1;whiteSpace=wrap;collapsible=0;dropTarget=0;pointerEvents=0;fillColor=none;top=0;left=0;bottom=0;right=0;points=[[0,0.5],[1,0.5]];portConstraint=eastwest;" vertex="1" parent="270">
                    <mxGeometry y="30" width="355" height="28" as="geometry"/>
                </mxCell>
                <mxCell id="272" value="1512" style="shape=partialRectangle;html=1;whiteSpace=wrap;connectable=0;fillColor=none;top=0;left=0;bottom=0;right=0;overflow=hidden;" vertex="1" parent="271">
                    <mxGeometry width="71" height="28" as="geometry"/>
                </mxCell>
                <mxCell id="273" value="20000" style="shape=partialRectangle;html=1;whiteSpace=wrap;connectable=0;fillColor=none;top=0;left=0;bottom=0;right=0;overflow=hidden;" vertex="1" parent="271">
                    <mxGeometry x="71" width="71" height="28" as="geometry"/>
                </mxCell>
                <mxCell id="274" value="1" style="shape=partialRectangle;html=1;whiteSpace=wrap;connectable=0;fillColor=none;top=0;left=0;bottom=0;right=0;overflow=hidden;" vertex="1" parent="271">
                    <mxGeometry x="142" width="71" height="28" as="geometry"/>
                </mxCell>
                <mxCell id="275" value="true" style="shape=partialRectangle;html=1;whiteSpace=wrap;connectable=0;fillColor=none;top=0;left=0;bottom=0;right=0;overflow=hidden;" vertex="1" parent="271">
                    <mxGeometry x="213" width="71" height="28" as="geometry"/>
                </mxCell>
                <mxCell id="276" value="true" style="shape=partialRectangle;html=1;whiteSpace=wrap;connectable=0;fillColor=none;top=0;left=0;bottom=0;right=0;overflow=hidden;" vertex="1" parent="271">
                    <mxGeometry x="284" width="71" height="28" as="geometry"/>
                </mxCell>
                <mxCell id="277" style="shape=partialRectangle;html=1;whiteSpace=wrap;collapsible=0;dropTarget=0;pointerEvents=0;fillColor=none;top=0;left=0;bottom=0;right=0;points=[[0,0.5],[1,0.5]];portConstraint=eastwest;" vertex="1" parent="270">
                    <mxGeometry y="58" width="355" height="28" as="geometry"/>
                </mxCell>
                <mxCell id="278" value="1512" style="shape=partialRectangle;html=1;whiteSpace=wrap;connectable=0;fillColor=none;top=0;left=0;bottom=0;right=0;overflow=hidden;" vertex="1" parent="277">
                    <mxGeometry width="71" height="28" as="geometry"/>
                </mxCell>
                <mxCell id="279" value="20002" style="shape=partialRectangle;html=1;whiteSpace=wrap;connectable=0;fillColor=none;top=0;left=0;bottom=0;right=0;overflow=hidden;" vertex="1" parent="277">
                    <mxGeometry x="71" width="71" height="28" as="geometry"/>
                </mxCell>
                <mxCell id="280" value="2" style="shape=partialRectangle;html=1;whiteSpace=wrap;connectable=0;fillColor=none;top=0;left=0;bottom=0;right=0;overflow=hidden;" vertex="1" parent="277">
                    <mxGeometry x="142" width="71" height="28" as="geometry"/>
                </mxCell>
                <mxCell id="281" value="false" style="shape=partialRectangle;html=1;whiteSpace=wrap;connectable=0;fillColor=none;top=0;left=0;bottom=0;right=0;overflow=hidden;" vertex="1" parent="277">
                    <mxGeometry x="213" width="71" height="28" as="geometry"/>
                </mxCell>
                <mxCell id="282" value="true" style="shape=partialRectangle;html=1;whiteSpace=wrap;connectable=0;fillColor=none;top=0;left=0;bottom=0;right=0;overflow=hidden;" vertex="1" parent="277">
                    <mxGeometry x="284" width="71" height="28" as="geometry"/>
                </mxCell>
                <mxCell id="283" style="shape=partialRectangle;html=1;whiteSpace=wrap;collapsible=0;dropTarget=0;pointerEvents=0;fillColor=none;top=0;left=0;bottom=0;right=0;points=[[0,0.5],[1,0.5]];portConstraint=eastwest;" vertex="1" parent="270">
                    <mxGeometry y="86" width="355" height="28" as="geometry"/>
                </mxCell>
                <mxCell id="284" value="1512" style="shape=partialRectangle;html=1;whiteSpace=wrap;connectable=0;fillColor=none;top=0;left=0;bottom=0;right=0;overflow=hidden;" vertex="1" parent="283">
                    <mxGeometry width="71" height="28" as="geometry"/>
                </mxCell>
                <mxCell id="285" value="20003" style="shape=partialRectangle;html=1;whiteSpace=wrap;connectable=0;fillColor=none;top=0;left=0;bottom=0;right=0;overflow=hidden;" vertex="1" parent="283">
                    <mxGeometry x="71" width="71" height="28" as="geometry"/>
                </mxCell>
                <mxCell id="286" value="3" style="shape=partialRectangle;html=1;whiteSpace=wrap;connectable=0;fillColor=none;top=0;left=0;bottom=0;right=0;overflow=hidden;" vertex="1" parent="283">
                    <mxGeometry x="142" width="71" height="28" as="geometry"/>
                </mxCell>
                <mxCell id="287" value="false" style="shape=partialRectangle;html=1;whiteSpace=wrap;connectable=0;fillColor=none;top=0;left=0;bottom=0;right=0;overflow=hidden;" vertex="1" parent="283">
                    <mxGeometry x="213" width="71" height="28" as="geometry"/>
                </mxCell>
                <mxCell id="288" value="true" style="shape=partialRectangle;html=1;whiteSpace=wrap;connectable=0;fillColor=none;top=0;left=0;bottom=0;right=0;overflow=hidden;" vertex="1" parent="283">
                    <mxGeometry x="284" width="71" height="28" as="geometry"/>
                </mxCell>
                <mxCell id="289" value="" style="shape=partialRectangle;html=1;whiteSpace=wrap;collapsible=0;dropTarget=0;pointerEvents=0;fillColor=#f5f5f5;top=0;left=0;bottom=0;right=0;points=[[0,0.5],[1,0.5]];portConstraint=eastwest;strokeColor=#666666;fontColor=#333333;" vertex="1" parent="270">
                    <mxGeometry y="114" width="355" height="28" as="geometry"/>
                </mxCell>
                <mxCell id="290" value="1512" style="shape=partialRectangle;html=1;whiteSpace=wrap;connectable=0;fillColor=none;top=0;left=0;bottom=0;right=0;overflow=hidden;" vertex="1" parent="289">
                    <mxGeometry width="71" height="28" as="geometry"/>
                </mxCell>
                <mxCell id="291" value="1627207" style="shape=partialRectangle;html=1;whiteSpace=wrap;connectable=0;fillColor=none;top=0;left=0;bottom=0;right=0;overflow=hidden;" vertex="1" parent="289">
                    <mxGeometry x="71" width="71" height="28" as="geometry"/>
                </mxCell>
                <mxCell id="292" value="4" style="shape=partialRectangle;html=1;whiteSpace=wrap;connectable=0;fillColor=none;top=0;left=0;bottom=0;right=0;overflow=hidden;" vertex="1" parent="289">
                    <mxGeometry x="142" width="71" height="28" as="geometry"/>
                </mxCell>
                <mxCell id="293" value="false" style="shape=partialRectangle;html=1;whiteSpace=wrap;connectable=0;fillColor=none;top=0;left=0;bottom=0;right=0;overflow=hidden;" vertex="1" parent="289">
                    <mxGeometry x="213" width="71" height="28" as="geometry"/>
                </mxCell>
                <mxCell id="294" value="true" style="shape=partialRectangle;html=1;whiteSpace=wrap;connectable=0;fillColor=none;top=0;left=0;bottom=0;right=0;overflow=hidden;" vertex="1" parent="289">
                    <mxGeometry x="284" width="71" height="28" as="geometry"/>
                </mxCell>
                <mxCell id="301" value="" style="shape=table;html=1;whiteSpace=wrap;startSize=0;container=1;collapsible=0;childLayout=tableLayout;strokeColor=none;fillColor=none;" vertex="1" parent="353">
                    <mxGeometry y="30" width="60" height="112" as="geometry"/>
                </mxCell>
                <mxCell id="302" value="" style="shape=partialRectangle;html=1;whiteSpace=wrap;collapsible=0;dropTarget=0;pointerEvents=0;fillColor=none;top=0;left=0;bottom=0;right=0;points=[[0,0.5],[1,0.5]];portConstraint=eastwest;" vertex="1" parent="301">
                    <mxGeometry width="60" height="28" as="geometry"/>
                </mxCell>
                <mxCell id="303" value="  0" style="shape=partialRectangle;html=1;whiteSpace=wrap;connectable=0;fillColor=none;top=0;left=0;bottom=0;right=0;overflow=hidden;" vertex="1" parent="302">
                    <mxGeometry width="60" height="28" as="geometry"/>
                </mxCell>
                <mxCell id="304" value="" style="shape=partialRectangle;html=1;whiteSpace=wrap;collapsible=0;dropTarget=0;pointerEvents=0;fillColor=none;top=0;left=0;bottom=0;right=0;points=[[0,0.5],[1,0.5]];portConstraint=eastwest;" vertex="1" parent="301">
                    <mxGeometry y="28" width="60" height="28" as="geometry"/>
                </mxCell>
                <mxCell id="305" value="&lt;span style=&quot;color: rgb(0 , 0 , 0) ; font-family: &amp;#34;helvetica&amp;#34; ; font-size: 12px ; font-style: normal ; font-weight: 400 ; letter-spacing: normal ; text-align: center ; text-indent: 0px ; text-transform: none ; word-spacing: 0px ; background-color: rgb(248 , 249 , 250) ; display: inline ; float: none&quot;&gt;  1&lt;/span&gt;" style="shape=partialRectangle;html=1;whiteSpace=wrap;connectable=0;fillColor=none;top=0;left=0;bottom=0;right=0;overflow=hidden;" vertex="1" parent="304">
                    <mxGeometry width="60" height="28" as="geometry"/>
                </mxCell>
                <mxCell id="306" value="" style="shape=partialRectangle;html=1;whiteSpace=wrap;collapsible=0;dropTarget=0;pointerEvents=0;fillColor=none;top=0;left=0;bottom=0;right=0;points=[[0,0.5],[1,0.5]];portConstraint=eastwest;" vertex="1" parent="301">
                    <mxGeometry y="56" width="60" height="28" as="geometry"/>
                </mxCell>
                <mxCell id="307" value="&lt;span style=&quot;color: rgb(0 , 0 , 0) ; font-family: &amp;#34;helvetica&amp;#34; ; font-size: 12px ; font-style: normal ; font-weight: 400 ; letter-spacing: normal ; text-align: center ; text-indent: 0px ; text-transform: none ; word-spacing: 0px ; background-color: rgb(248 , 249 , 250) ; display: inline ; float: none&quot;&gt;  2&lt;/span&gt;" style="shape=partialRectangle;html=1;whiteSpace=wrap;connectable=0;fillColor=none;top=0;left=0;bottom=0;right=0;overflow=hidden;" vertex="1" parent="306">
                    <mxGeometry width="60" height="28" as="geometry"/>
                </mxCell>
                <mxCell id="308" style="shape=partialRectangle;html=1;whiteSpace=wrap;collapsible=0;dropTarget=0;pointerEvents=0;fillColor=none;top=0;left=0;bottom=0;right=0;points=[[0,0.5],[1,0.5]];portConstraint=eastwest;" vertex="1" parent="301">
                    <mxGeometry y="84" width="60" height="28" as="geometry"/>
                </mxCell>
                <mxCell id="309" value="&lt;span style=&quot;color: rgb(0 , 0 , 0) ; font-family: &amp;#34;helvetica&amp;#34; ; font-size: 12px ; font-style: normal ; font-weight: 400 ; letter-spacing: normal ; text-align: center ; text-indent: 0px ; text-transform: none ; word-spacing: 0px ; background-color: rgb(248 , 249 , 250) ; display: inline ; float: none&quot;&gt;  3&lt;/span&gt;" style="shape=partialRectangle;html=1;whiteSpace=wrap;connectable=0;fillColor=none;top=0;left=0;bottom=0;right=0;overflow=hidden;" vertex="1" parent="308">
                    <mxGeometry width="60" height="28" as="geometry"/>
                </mxCell>
                <mxCell id="312" value="" style="shape=table;html=1;whiteSpace=wrap;startSize=0;container=1;collapsible=0;childLayout=tableLayout;strokeColor=none;fillColor=none;" vertex="1" parent="353">
                    <mxGeometry x="65" y="142" width="355" height="40" as="geometry"/>
                </mxCell>
                <mxCell id="313" value="" style="shape=partialRectangle;html=1;whiteSpace=wrap;collapsible=0;dropTarget=0;pointerEvents=0;fillColor=none;top=0;left=0;bottom=0;right=0;points=[[0,0.5],[1,0.5]];portConstraint=eastwest;" vertex="1" parent="312">
                    <mxGeometry width="355" height="40" as="geometry"/>
                </mxCell>
                <mxCell id="314" value="catId" style="shape=partialRectangle;html=1;whiteSpace=wrap;connectable=0;fillColor=none;top=0;left=0;bottom=0;right=0;overflow=hidden;" vertex="1" parent="313">
                    <mxGeometry width="71" height="40" as="geometry"/>
                </mxCell>
                <mxCell id="315" value="propId" style="shape=partialRectangle;html=1;whiteSpace=wrap;connectable=0;fillColor=none;top=0;left=0;bottom=0;right=0;overflow=hidden;" vertex="1" parent="313">
                    <mxGeometry x="71" width="71" height="40" as="geometry"/>
                </mxCell>
                <mxCell id="316" value="sortOrder" style="shape=partialRectangle;html=1;whiteSpace=wrap;connectable=0;fillColor=none;top=0;left=0;bottom=0;right=0;overflow=hidden;" vertex="1" parent="313">
                    <mxGeometry x="142" width="71" height="40" as="geometry"/>
                </mxCell>
                <mxCell id="317" value="key" style="shape=partialRectangle;html=1;whiteSpace=wrap;connectable=0;fillColor=none;top=0;left=0;bottom=0;right=0;overflow=hidden;" vertex="1" parent="313">
                    <mxGeometry x="213" width="71" height="40" as="geometry"/>
                </mxCell>
                <mxCell id="318" value="required" style="shape=partialRectangle;html=1;whiteSpace=wrap;connectable=0;fillColor=none;top=0;left=0;bottom=0;right=0;overflow=hidden;" vertex="1" parent="313">
                    <mxGeometry x="284" width="71" height="40" as="geometry"/>
                </mxCell>
                <mxCell id="354" value="" style="group" vertex="1" connectable="0" parent="1">
                    <mxGeometry x="833" y="147" width="420" height="213" as="geometry"/>
                </mxCell>
                <mxCell id="221" value="meta head" style="shape=table;startSize=30;container=1;collapsible=0;childLayout=tableLayout;fontStyle=1;align=center;" vertex="1" parent="354">
                    <mxGeometry x="65" width="355" height="170" as="geometry"/>
                </mxCell>
                <mxCell id="222" value="" style="shape=partialRectangle;html=1;whiteSpace=wrap;collapsible=0;dropTarget=0;pointerEvents=0;fillColor=none;top=0;left=0;bottom=0;right=0;points=[[0,0.5],[1,0.5]];portConstraint=eastwest;" vertex="1" parent="221">
                    <mxGeometry y="30" width="355" height="28" as="geometry"/>
                </mxCell>
                <mxCell id="223" value="0" style="shape=partialRectangle;html=1;whiteSpace=wrap;connectable=0;fillColor=none;top=0;left=0;bottom=0;right=0;overflow=hidden;" vertex="1" parent="222">
                    <mxGeometry width="71" height="28" as="geometry"/>
                </mxCell>
                <mxCell id="224" value="3" style="shape=partialRectangle;html=1;whiteSpace=wrap;connectable=0;fillColor=none;top=0;left=0;bottom=0;right=0;overflow=hidden;" vertex="1" parent="222">
                    <mxGeometry x="71" width="71" height="28" as="geometry"/>
                </mxCell>
                <mxCell id="225" value="1" style="shape=partialRectangle;html=1;whiteSpace=wrap;connectable=0;fillColor=none;top=0;left=0;bottom=0;right=0;overflow=hidden;" vertex="1" parent="222">
                    <mxGeometry x="142" width="71" height="28" as="geometry"/>
                </mxCell>
                <mxCell id="226" value="0" style="shape=partialRectangle;html=1;whiteSpace=wrap;connectable=0;fillColor=none;top=0;left=0;bottom=0;right=0;overflow=hidden;" vertex="1" parent="222">
                    <mxGeometry x="213" width="71" height="28" as="geometry"/>
                </mxCell>
                <mxCell id="227" value="1" style="shape=partialRectangle;html=1;whiteSpace=wrap;connectable=0;fillColor=none;top=0;left=0;bottom=0;right=0;overflow=hidden;" vertex="1" parent="222">
                    <mxGeometry x="284" width="71" height="28" as="geometry"/>
                </mxCell>
                <mxCell id="228" style="shape=partialRectangle;html=1;whiteSpace=wrap;collapsible=0;dropTarget=0;pointerEvents=0;fillColor=none;top=0;left=0;bottom=0;right=0;points=[[0,0.5],[1,0.5]];portConstraint=eastwest;" vertex="1" parent="221">
                    <mxGeometry y="58" width="355" height="28" as="geometry"/>
                </mxCell>
                <mxCell id="229" value="16" style="shape=partialRectangle;html=1;whiteSpace=wrap;connectable=0;fillColor=none;top=0;left=0;bottom=0;right=0;overflow=hidden;" vertex="1" parent="228">
                    <mxGeometry width="71" height="28" as="geometry"/>
                </mxCell>
                <mxCell id="230" value="3" style="shape=partialRectangle;html=1;whiteSpace=wrap;connectable=0;fillColor=none;top=0;left=0;bottom=0;right=0;overflow=hidden;" vertex="1" parent="228">
                    <mxGeometry x="71" width="71" height="28" as="geometry"/>
                </mxCell>
                <mxCell id="231" value="1" style="shape=partialRectangle;html=1;whiteSpace=wrap;connectable=0;fillColor=none;top=0;left=0;bottom=0;right=0;overflow=hidden;" vertex="1" parent="228">
                    <mxGeometry x="142" width="71" height="28" as="geometry"/>
                </mxCell>
                <mxCell id="232" value="1" style="shape=partialRectangle;html=1;whiteSpace=wrap;connectable=0;fillColor=none;top=0;left=0;bottom=0;right=0;overflow=hidden;" vertex="1" parent="228">
                    <mxGeometry x="213" width="71" height="28" as="geometry"/>
                </mxCell>
                <mxCell id="233" value="12" style="shape=partialRectangle;html=1;whiteSpace=wrap;connectable=0;fillColor=none;top=0;left=0;bottom=0;right=0;overflow=hidden;" vertex="1" parent="228">
                    <mxGeometry x="284" width="71" height="28" as="geometry"/>
                </mxCell>
                <mxCell id="234" style="shape=partialRectangle;html=1;whiteSpace=wrap;collapsible=0;dropTarget=0;pointerEvents=0;fillColor=none;top=0;left=0;bottom=0;right=0;points=[[0,0.5],[1,0.5]];portConstraint=eastwest;" vertex="1" parent="221">
                    <mxGeometry y="86" width="355" height="28" as="geometry"/>
                </mxCell>
                <mxCell id="235" value="29" style="shape=partialRectangle;html=1;whiteSpace=wrap;connectable=0;fillColor=none;top=0;left=0;bottom=0;right=0;overflow=hidden;" vertex="1" parent="234">
                    <mxGeometry width="71" height="28" as="geometry"/>
                </mxCell>
                <mxCell id="236" value="3" style="shape=partialRectangle;html=1;whiteSpace=wrap;connectable=0;fillColor=none;top=0;left=0;bottom=0;right=0;overflow=hidden;" vertex="1" parent="234">
                    <mxGeometry x="71" width="71" height="28" as="geometry"/>
                </mxCell>
                <mxCell id="237" value="1" style="shape=partialRectangle;html=1;whiteSpace=wrap;connectable=0;fillColor=none;top=0;left=0;bottom=0;right=0;overflow=hidden;" vertex="1" parent="234">
                    <mxGeometry x="142" width="71" height="28" as="geometry"/>
                </mxCell>
                <mxCell id="238" value="3" style="shape=partialRectangle;html=1;whiteSpace=wrap;connectable=0;fillColor=none;top=0;left=0;bottom=0;right=0;overflow=hidden;" vertex="1" parent="234">
                    <mxGeometry x="213" width="71" height="28" as="geometry"/>
                </mxCell>
                <mxCell id="239" value="60" style="shape=partialRectangle;html=1;whiteSpace=wrap;connectable=0;fillColor=none;top=0;left=0;bottom=0;right=0;overflow=hidden;" vertex="1" parent="234">
                    <mxGeometry x="284" width="71" height="28" as="geometry"/>
                </mxCell>
                <mxCell id="240" value="" style="shape=partialRectangle;html=1;whiteSpace=wrap;collapsible=0;dropTarget=0;pointerEvents=0;fillColor=none;top=0;left=0;bottom=0;right=0;points=[[0,0.5],[1,0.5]];portConstraint=eastwest;" vertex="1" parent="221">
                    <mxGeometry y="114" width="355" height="28" as="geometry"/>
                </mxCell>
                <mxCell id="241" value="30" style="shape=partialRectangle;html=1;whiteSpace=wrap;connectable=0;fillColor=none;top=0;left=0;bottom=0;right=0;overflow=hidden;" vertex="1" parent="240">
                    <mxGeometry width="71" height="28" as="geometry"/>
                </mxCell>
                <mxCell id="242" value="3" style="shape=partialRectangle;html=1;whiteSpace=wrap;connectable=0;fillColor=none;top=0;left=0;bottom=0;right=0;overflow=hidden;" vertex="1" parent="240">
                    <mxGeometry x="71" width="71" height="28" as="geometry"/>
                </mxCell>
                <mxCell id="243" value="1" style="shape=partialRectangle;html=1;whiteSpace=wrap;connectable=0;fillColor=none;top=0;left=0;bottom=0;right=0;overflow=hidden;" vertex="1" parent="240">
                    <mxGeometry x="142" width="71" height="28" as="geometry"/>
                </mxCell>
                <mxCell id="244" value="2" style="shape=partialRectangle;html=1;whiteSpace=wrap;connectable=0;fillColor=none;top=0;left=0;bottom=0;right=0;overflow=hidden;" vertex="1" parent="240">
                    <mxGeometry x="213" width="71" height="28" as="geometry"/>
                </mxCell>
                <mxCell id="245" value="12" style="shape=partialRectangle;html=1;whiteSpace=wrap;connectable=0;fillColor=none;top=0;left=0;bottom=0;right=0;overflow=hidden;" vertex="1" parent="240">
                    <mxGeometry x="284" width="71" height="28" as="geometry"/>
                </mxCell>
                <mxCell id="246" value="" style="shape=partialRectangle;html=1;whiteSpace=wrap;collapsible=0;dropTarget=0;pointerEvents=0;fillColor=none;top=0;left=0;bottom=0;right=0;points=[[0,0.5],[1,0.5]];portConstraint=eastwest;" vertex="1" parent="221">
                    <mxGeometry y="142" width="355" height="28" as="geometry"/>
                </mxCell>
                <mxCell id="247" value="1512" style="shape=partialRectangle;html=1;whiteSpace=wrap;connectable=0;fillColor=none;top=0;left=0;bottom=0;right=0;overflow=hidden;" vertex="1" parent="246">
                    <mxGeometry width="71" height="28" as="geometry"/>
                </mxCell>
                <mxCell id="248" value="3" style="shape=partialRectangle;html=1;whiteSpace=wrap;connectable=0;fillColor=none;top=0;left=0;bottom=0;right=0;overflow=hidden;" vertex="1" parent="246">
                    <mxGeometry x="71" width="71" height="28" as="geometry"/>
                </mxCell>
                <mxCell id="249" value="1" style="shape=partialRectangle;html=1;whiteSpace=wrap;connectable=0;fillColor=none;top=0;left=0;bottom=0;right=0;overflow=hidden;" vertex="1" parent="246">
                    <mxGeometry x="142" width="71" height="28" as="geometry"/>
                </mxCell>
                <mxCell id="250" value="6" style="shape=partialRectangle;html=1;whiteSpace=wrap;connectable=0;fillColor=none;top=0;left=0;bottom=0;right=0;overflow=hidden;" vertex="1" parent="246">
                    <mxGeometry x="213" width="71" height="28" as="geometry"/>
                </mxCell>
                <mxCell id="251" value="15" style="shape=partialRectangle;html=1;whiteSpace=wrap;connectable=0;fillColor=none;top=0;left=0;bottom=0;right=0;overflow=hidden;" vertex="1" parent="246">
                    <mxGeometry x="284" width="71" height="28" as="geometry"/>
                </mxCell>
                <mxCell id="252" value="" style="shape=table;html=1;whiteSpace=wrap;startSize=0;container=1;collapsible=0;childLayout=tableLayout;strokeColor=none;fillColor=none;" vertex="1" parent="354">
                    <mxGeometry y="30" width="60" height="140" as="geometry"/>
                </mxCell>
                <mxCell id="253" value="" style="shape=partialRectangle;html=1;whiteSpace=wrap;collapsible=0;dropTarget=0;pointerEvents=0;fillColor=none;top=0;left=0;bottom=0;right=0;points=[[0,0.5],[1,0.5]];portConstraint=eastwest;" vertex="1" parent="252">
                    <mxGeometry width="60" height="28" as="geometry"/>
                </mxCell>
                <mxCell id="254" value="  0" style="shape=partialRectangle;html=1;whiteSpace=wrap;connectable=0;top=0;left=0;bottom=0;right=0;overflow=hidden;fillColor=none;" vertex="1" parent="253">
                    <mxGeometry width="60" height="28" as="geometry"/>
                </mxCell>
                <mxCell id="255" value="" style="shape=partialRectangle;html=1;whiteSpace=wrap;collapsible=0;dropTarget=0;pointerEvents=0;fillColor=none;top=0;left=0;bottom=0;right=0;points=[[0,0.5],[1,0.5]];portConstraint=eastwest;" vertex="1" parent="252">
                    <mxGeometry y="28" width="60" height="28" as="geometry"/>
                </mxCell>
                <mxCell id="256" value="&lt;span style=&quot;color: rgb(0 , 0 , 0) ; font-family: &amp;#34;helvetica&amp;#34; ; font-size: 12px ; font-style: normal ; font-weight: 400 ; letter-spacing: normal ; text-align: center ; text-indent: 0px ; text-transform: none ; word-spacing: 0px ; background-color: rgb(248 , 249 , 250) ; display: inline ; float: none&quot;&gt;  1&lt;/span&gt;" style="shape=partialRectangle;html=1;whiteSpace=wrap;connectable=0;fillColor=none;top=0;left=0;bottom=0;right=0;overflow=hidden;" vertex="1" parent="255">
                    <mxGeometry width="60" height="28" as="geometry"/>
                </mxCell>
                <mxCell id="257" value="" style="shape=partialRectangle;html=1;whiteSpace=wrap;collapsible=0;dropTarget=0;pointerEvents=0;fillColor=none;top=0;left=0;bottom=0;right=0;points=[[0,0.5],[1,0.5]];portConstraint=eastwest;" vertex="1" parent="252">
                    <mxGeometry y="56" width="60" height="28" as="geometry"/>
                </mxCell>
                <mxCell id="258" value="&lt;span style=&quot;color: rgb(0 , 0 , 0) ; font-family: &amp;#34;helvetica&amp;#34; ; font-size: 12px ; font-style: normal ; font-weight: 400 ; letter-spacing: normal ; text-align: center ; text-indent: 0px ; text-transform: none ; word-spacing: 0px ; background-color: rgb(248 , 249 , 250) ; display: inline ; float: none&quot;&gt;  2&lt;/span&gt;" style="shape=partialRectangle;html=1;whiteSpace=wrap;connectable=0;fillColor=none;top=0;left=0;bottom=0;right=0;overflow=hidden;" vertex="1" parent="257">
                    <mxGeometry width="60" height="28" as="geometry"/>
                </mxCell>
                <mxCell id="259" style="shape=partialRectangle;html=1;whiteSpace=wrap;collapsible=0;dropTarget=0;pointerEvents=0;fillColor=none;top=0;left=0;bottom=0;right=0;points=[[0,0.5],[1,0.5]];portConstraint=eastwest;" vertex="1" parent="252">
                    <mxGeometry y="84" width="60" height="28" as="geometry"/>
                </mxCell>
                <mxCell id="260" value="&lt;span style=&quot;color: rgb(0 , 0 , 0) ; font-family: &amp;#34;helvetica&amp;#34; ; font-size: 12px ; font-style: normal ; font-weight: 400 ; letter-spacing: normal ; text-align: center ; text-indent: 0px ; text-transform: none ; word-spacing: 0px ; background-color: rgb(248 , 249 , 250) ; display: inline ; float: none&quot;&gt;  3&lt;/span&gt;" style="shape=partialRectangle;html=1;whiteSpace=wrap;connectable=0;fillColor=none;top=0;left=0;bottom=0;right=0;overflow=hidden;" vertex="1" parent="259">
                    <mxGeometry width="60" height="28" as="geometry"/>
                </mxCell>
                <mxCell id="261" style="shape=partialRectangle;html=1;whiteSpace=wrap;collapsible=0;dropTarget=0;pointerEvents=0;fillColor=none;top=0;left=0;bottom=0;right=0;points=[[0,0.5],[1,0.5]];portConstraint=eastwest;" vertex="1" parent="252">
                    <mxGeometry y="112" width="60" height="28" as="geometry"/>
                </mxCell>
                <mxCell id="262" value="&lt;span style=&quot;color: rgb(0 , 0 , 0) ; font-family: &amp;#34;helvetica&amp;#34; ; font-size: 12px ; font-style: normal ; font-weight: 400 ; letter-spacing: normal ; text-align: center ; text-indent: 0px ; text-transform: none ; word-spacing: 0px ; background-color: rgb(248 , 249 , 250) ; display: inline ; float: none&quot;&gt;  4&lt;/span&gt;" style="shape=partialRectangle;html=1;whiteSpace=wrap;connectable=0;fillColor=none;top=0;left=0;bottom=0;right=0;overflow=hidden;" vertex="1" parent="261">
                    <mxGeometry width="60" height="28" as="geometry"/>
                </mxCell>
                <mxCell id="263" value="" style="shape=table;html=1;whiteSpace=wrap;startSize=0;container=1;collapsible=0;childLayout=tableLayout;strokeColor=none;fillColor=none;" vertex="1" parent="354">
                    <mxGeometry x="65" y="173" width="355" height="40" as="geometry"/>
                </mxCell>
                <mxCell id="264" value="" style="shape=partialRectangle;html=1;whiteSpace=wrap;collapsible=0;dropTarget=0;pointerEvents=0;fillColor=none;top=0;left=0;bottom=0;right=0;points=[[0,0.5],[1,0.5]];portConstraint=eastwest;" vertex="1" parent="263">
                    <mxGeometry width="355" height="40" as="geometry"/>
                </mxCell>
                <mxCell id="265" value="catId" style="shape=partialRectangle;html=1;whiteSpace=wrap;connectable=0;fillColor=none;top=0;left=0;bottom=0;right=0;overflow=hidden;" vertex="1" parent="264">
                    <mxGeometry width="71" height="40" as="geometry"/>
                </mxCell>
                <mxCell id="266" value="catType" style="shape=partialRectangle;html=1;whiteSpace=wrap;connectable=0;fillColor=none;top=0;left=0;bottom=0;right=0;overflow=hidden;" vertex="1" parent="264">
                    <mxGeometry x="71" width="71" height="40" as="geometry"/>
                </mxCell>
                <mxCell id="267" value="channelId" style="shape=partialRectangle;html=1;whiteSpace=wrap;connectable=0;fillColor=none;top=0;left=0;bottom=0;right=0;overflow=hidden;" vertex="1" parent="264">
                    <mxGeometry x="142" width="71" height="40" as="geometry"/>
                </mxCell>
                <mxCell id="268" value="sortOrder" style="shape=partialRectangle;html=1;whiteSpace=wrap;connectable=0;fillColor=none;top=0;left=0;bottom=0;right=0;overflow=hidden;" vertex="1" parent="264">
                    <mxGeometry x="213" width="71" height="40" as="geometry"/>
                </mxCell>
                <mxCell id="269" value="commodityId" style="shape=partialRectangle;html=1;whiteSpace=wrap;connectable=0;fillColor=none;top=0;left=0;bottom=0;right=0;overflow=hidden;" vertex="1" parent="264">
                    <mxGeometry x="284" width="71" height="40" as="geometry"/>
                </mxCell>
                <mxCell id="356" value="meta head" style="shape=table;startSize=30;container=1;collapsible=0;childLayout=tableLayout;fontStyle=1;align=center;" vertex="1" parent="1">
                    <mxGeometry x="898" y="630" width="355" height="254" as="geometry"/>
                </mxCell>
                <mxCell id="357" value="" style="shape=partialRectangle;html=1;whiteSpace=wrap;collapsible=0;dropTarget=0;pointerEvents=0;fillColor=none;top=0;left=0;bottom=0;right=0;points=[[0,0.5],[1,0.5]];portConstraint=eastwest;" vertex="1" parent="356">
                    <mxGeometry y="30" width="355" height="28" as="geometry"/>
                </mxCell>
                <mxCell id="358" value="1512" style="shape=partialRectangle;html=1;whiteSpace=wrap;connectable=0;fillColor=none;top=0;left=0;bottom=0;right=0;overflow=hidden;" vertex="1" parent="357">
                    <mxGeometry width="71" height="28" as="geometry"/>
                </mxCell>
                <mxCell id="359" value="20000" style="shape=partialRectangle;html=1;whiteSpace=wrap;connectable=0;fillColor=none;top=0;left=0;bottom=0;right=0;overflow=hidden;" vertex="1" parent="357">
                    <mxGeometry x="71" width="71" height="28" as="geometry"/>
                </mxCell>
                <mxCell id="360" value="582" style="shape=partialRectangle;html=1;whiteSpace=wrap;connectable=0;fillColor=none;top=0;left=0;bottom=0;right=0;overflow=hidden;" vertex="1" parent="357">
                    <mxGeometry x="142" width="71" height="28" as="geometry"/>
                </mxCell>
                <mxCell id="361" value="44" style="shape=partialRectangle;html=1;whiteSpace=wrap;connectable=0;fillColor=none;top=0;left=0;bottom=0;right=0;overflow=hidden;" vertex="1" parent="357">
                    <mxGeometry x="213" width="71" height="28" as="geometry"/>
                </mxCell>
                <mxCell id="362" value="0" style="shape=partialRectangle;html=1;whiteSpace=wrap;connectable=0;fillColor=none;top=0;left=0;bottom=0;right=0;overflow=hidden;" vertex="1" parent="357">
                    <mxGeometry x="284" width="71" height="28" as="geometry"/>
                </mxCell>
                <mxCell id="363" style="shape=partialRectangle;html=1;whiteSpace=wrap;collapsible=0;dropTarget=0;pointerEvents=0;fillColor=none;top=0;left=0;bottom=0;right=0;points=[[0,0.5],[1,0.5]];portConstraint=eastwest;" vertex="1" parent="356">
                    <mxGeometry y="58" width="355" height="28" as="geometry"/>
                </mxCell>
                <mxCell id="364" value="1512" style="shape=partialRectangle;html=1;whiteSpace=wrap;connectable=0;fillColor=none;top=0;left=0;bottom=0;right=0;overflow=hidden;" vertex="1" parent="363">
                    <mxGeometry width="71" height="28" as="geometry"/>
                </mxCell>
                <mxCell id="365" value="20000" style="shape=partialRectangle;html=1;whiteSpace=wrap;connectable=0;fillColor=none;top=0;left=0;bottom=0;right=0;overflow=hidden;" vertex="1" parent="363">
                    <mxGeometry x="71" width="71" height="28" as="geometry"/>
                </mxCell>
                <mxCell id="366" value="354" style="shape=partialRectangle;html=1;whiteSpace=wrap;connectable=0;fillColor=none;top=0;left=0;bottom=0;right=0;overflow=hidden;" vertex="1" parent="363">
                    <mxGeometry x="142" width="71" height="28" as="geometry"/>
                </mxCell>
                <mxCell id="367" value="50" style="shape=partialRectangle;html=1;whiteSpace=wrap;connectable=0;fillColor=none;top=0;left=0;bottom=0;right=0;overflow=hidden;" vertex="1" parent="363">
                    <mxGeometry x="213" width="71" height="28" as="geometry"/>
                </mxCell>
                <mxCell id="368" value="0" style="shape=partialRectangle;html=1;whiteSpace=wrap;connectable=0;fillColor=none;top=0;left=0;bottom=0;right=0;overflow=hidden;" vertex="1" parent="363">
                    <mxGeometry x="284" width="71" height="28" as="geometry"/>
                </mxCell>
                <mxCell id="369" style="shape=partialRectangle;html=1;whiteSpace=wrap;collapsible=0;dropTarget=0;pointerEvents=0;fillColor=none;top=0;left=0;bottom=0;right=0;points=[[0,0.5],[1,0.5]];portConstraint=eastwest;" vertex="1" parent="356">
                    <mxGeometry y="86" width="355" height="28" as="geometry"/>
                </mxCell>
                <mxCell id="370" value="1512" style="shape=partialRectangle;html=1;whiteSpace=wrap;connectable=0;fillColor=none;top=0;left=0;bottom=0;right=0;overflow=hidden;" vertex="1" parent="369">
                    <mxGeometry width="71" height="28" as="geometry"/>
                </mxCell>
                <mxCell id="371" value="20000" style="shape=partialRectangle;html=1;whiteSpace=wrap;connectable=0;fillColor=none;top=0;left=0;bottom=0;right=0;overflow=hidden;" vertex="1" parent="369">
                    <mxGeometry x="71" width="71" height="28" as="geometry"/>
                </mxCell>
                <mxCell id="372" value="275" style="shape=partialRectangle;html=1;whiteSpace=wrap;connectable=0;fillColor=none;top=0;left=0;bottom=0;right=0;overflow=hidden;" vertex="1" parent="369">
                    <mxGeometry x="142" width="71" height="28" as="geometry"/>
                </mxCell>
                <mxCell id="373" value="1754" style="shape=partialRectangle;html=1;whiteSpace=wrap;connectable=0;fillColor=none;top=0;left=0;bottom=0;right=0;overflow=hidden;" vertex="1" parent="369">
                    <mxGeometry x="213" width="71" height="28" as="geometry"/>
                </mxCell>
                <mxCell id="374" value="0" style="shape=partialRectangle;html=1;whiteSpace=wrap;connectable=0;fillColor=none;top=0;left=0;bottom=0;right=0;overflow=hidden;" vertex="1" parent="369">
                    <mxGeometry x="284" width="71" height="28" as="geometry"/>
                </mxCell>
                <mxCell id="375" value="" style="shape=partialRectangle;html=1;whiteSpace=wrap;collapsible=0;dropTarget=0;pointerEvents=0;fillColor=none;top=0;left=0;bottom=0;right=0;points=[[0,0.5],[1,0.5]];portConstraint=eastwest;" vertex="1" parent="356">
                    <mxGeometry y="114" width="355" height="28" as="geometry"/>
                </mxCell>
                <mxCell id="376" value="1512" style="shape=partialRectangle;html=1;whiteSpace=wrap;connectable=0;fillColor=none;top=0;left=0;bottom=0;right=0;overflow=hidden;" vertex="1" parent="375">
                    <mxGeometry width="71" height="28" as="geometry"/>
                </mxCell>
                <mxCell id="377" value="20000" style="shape=partialRectangle;html=1;whiteSpace=wrap;connectable=0;fillColor=none;top=0;left=0;bottom=0;right=0;overflow=hidden;" vertex="1" parent="375">
                    <mxGeometry x="71" width="71" height="28" as="geometry"/>
                </mxCell>
                <mxCell id="378" value="126" style="shape=partialRectangle;html=1;whiteSpace=wrap;connectable=0;fillColor=none;top=0;left=0;bottom=0;right=0;overflow=hidden;" vertex="1" parent="375">
                    <mxGeometry x="142" width="71" height="28" as="geometry"/>
                </mxCell>
                <mxCell id="379" value="486" style="shape=partialRectangle;html=1;whiteSpace=wrap;connectable=0;fillColor=none;top=0;left=0;bottom=0;right=0;overflow=hidden;" vertex="1" parent="375">
                    <mxGeometry x="213" width="71" height="28" as="geometry"/>
                </mxCell>
                <mxCell id="380" value="0" style="shape=partialRectangle;html=1;whiteSpace=wrap;connectable=0;fillColor=none;top=0;left=0;bottom=0;right=0;overflow=hidden;" vertex="1" parent="375">
                    <mxGeometry x="284" width="71" height="28" as="geometry"/>
                </mxCell>
                <mxCell id="518" style="shape=partialRectangle;html=1;whiteSpace=wrap;collapsible=0;dropTarget=0;pointerEvents=0;fillColor=none;top=0;left=0;bottom=0;right=0;points=[[0,0.5],[1,0.5]];portConstraint=eastwest;" vertex="1" parent="356">
                    <mxGeometry y="142" width="355" height="28" as="geometry"/>
                </mxCell>
                <mxCell id="519" value="1512" style="shape=partialRectangle;html=1;whiteSpace=wrap;connectable=0;fillColor=none;top=0;left=0;bottom=0;right=0;overflow=hidden;" vertex="1" parent="518">
                    <mxGeometry width="71" height="28" as="geometry"/>
                </mxCell>
                <mxCell id="520" value="20000" style="shape=partialRectangle;html=1;whiteSpace=wrap;connectable=0;fillColor=none;top=0;left=0;bottom=0;right=0;overflow=hidden;" vertex="1" parent="518">
                    <mxGeometry x="71" width="71" height="28" as="geometry"/>
                </mxCell>
                <mxCell id="521" value="972" style="shape=partialRectangle;html=1;whiteSpace=wrap;connectable=0;fillColor=none;top=0;left=0;bottom=0;right=0;overflow=hidden;" vertex="1" parent="518">
                    <mxGeometry x="142" width="71" height="28" as="geometry"/>
                </mxCell>
                <mxCell id="522" value="237" style="shape=partialRectangle;html=1;whiteSpace=wrap;connectable=0;fillColor=none;top=0;left=0;bottom=0;right=0;overflow=hidden;" vertex="1" parent="518">
                    <mxGeometry x="213" width="71" height="28" as="geometry"/>
                </mxCell>
                <mxCell id="523" value="0" style="shape=partialRectangle;html=1;whiteSpace=wrap;connectable=0;fillColor=none;top=0;left=0;bottom=0;right=0;overflow=hidden;" vertex="1" parent="518">
                    <mxGeometry x="284" width="71" height="28" as="geometry"/>
                </mxCell>
                <mxCell id="403" style="shape=partialRectangle;html=1;whiteSpace=wrap;collapsible=0;dropTarget=0;pointerEvents=0;fillColor=none;top=0;left=0;bottom=0;right=0;points=[[0,0.5],[1,0.5]];portConstraint=eastwest;" vertex="1" parent="356">
                    <mxGeometry y="170" width="355" height="28" as="geometry"/>
                </mxCell>
                <mxCell id="404" style="shape=partialRectangle;html=1;whiteSpace=wrap;connectable=0;fillColor=none;top=0;left=0;bottom=0;right=0;overflow=hidden;" vertex="1" parent="403">
                    <mxGeometry width="71" height="28" as="geometry"/>
                </mxCell>
                <mxCell id="405" style="shape=partialRectangle;html=1;whiteSpace=wrap;connectable=0;fillColor=none;top=0;left=0;bottom=0;right=0;overflow=hidden;" vertex="1" parent="403">
                    <mxGeometry x="71" width="71" height="28" as="geometry"/>
                </mxCell>
                <mxCell id="406" style="shape=partialRectangle;html=1;whiteSpace=wrap;connectable=0;fillColor=none;top=0;left=0;bottom=0;right=0;overflow=hidden;" vertex="1" parent="403">
                    <mxGeometry x="142" width="71" height="28" as="geometry"/>
                </mxCell>
                <mxCell id="407" style="shape=partialRectangle;html=1;whiteSpace=wrap;connectable=0;fillColor=none;top=0;left=0;bottom=0;right=0;overflow=hidden;" vertex="1" parent="403">
                    <mxGeometry x="213" width="71" height="28" as="geometry"/>
                </mxCell>
                <mxCell id="408" style="shape=partialRectangle;html=1;whiteSpace=wrap;connectable=0;fillColor=none;top=0;left=0;bottom=0;right=0;overflow=hidden;" vertex="1" parent="403">
                    <mxGeometry x="284" width="71" height="28" as="geometry"/>
                </mxCell>
                <mxCell id="409" style="shape=partialRectangle;html=1;whiteSpace=wrap;collapsible=0;dropTarget=0;pointerEvents=0;fillColor=none;top=0;left=0;bottom=0;right=0;points=[[0,0.5],[1,0.5]];portConstraint=eastwest;" vertex="1" parent="356">
                    <mxGeometry y="198" width="355" height="28" as="geometry"/>
                </mxCell>
                <mxCell id="410" value="1512" style="shape=partialRectangle;html=1;whiteSpace=wrap;connectable=0;fillColor=none;top=0;left=0;bottom=0;right=0;overflow=hidden;" vertex="1" parent="409">
                    <mxGeometry width="71" height="28" as="geometry"/>
                </mxCell>
                <mxCell id="411" value="1627207" style="shape=partialRectangle;html=1;whiteSpace=wrap;connectable=0;fillColor=none;top=0;left=0;bottom=0;right=0;overflow=hidden;" vertex="1" parent="409">
                    <mxGeometry x="71" width="71" height="28" as="geometry"/>
                </mxCell>
                <mxCell id="412" value="532" style="shape=partialRectangle;html=1;whiteSpace=wrap;connectable=0;fillColor=none;top=0;left=0;bottom=0;right=0;overflow=hidden;" vertex="1" parent="409">
                    <mxGeometry x="142" width="71" height="28" as="geometry"/>
                </mxCell>
                <mxCell id="413" value="58" style="shape=partialRectangle;html=1;whiteSpace=wrap;connectable=0;fillColor=none;top=0;left=0;bottom=0;right=0;overflow=hidden;" vertex="1" parent="409">
                    <mxGeometry x="213" width="71" height="28" as="geometry"/>
                </mxCell>
                <mxCell id="414" value="66" style="shape=partialRectangle;html=1;whiteSpace=wrap;connectable=0;fillColor=none;top=0;left=0;bottom=0;right=0;overflow=hidden;" vertex="1" parent="409">
                    <mxGeometry x="284" width="71" height="28" as="geometry"/>
                </mxCell>
                <mxCell id="415" style="shape=partialRectangle;html=1;whiteSpace=wrap;collapsible=0;dropTarget=0;pointerEvents=0;fillColor=none;top=0;left=0;bottom=0;right=0;points=[[0,0.5],[1,0.5]];portConstraint=eastwest;" vertex="1" parent="356">
                    <mxGeometry y="226" width="355" height="28" as="geometry"/>
                </mxCell>
                <mxCell id="416" value="1512" style="shape=partialRectangle;html=1;whiteSpace=wrap;connectable=0;fillColor=none;top=0;left=0;bottom=0;right=0;overflow=hidden;" vertex="1" parent="415">
                    <mxGeometry width="71" height="28" as="geometry"/>
                </mxCell>
                <mxCell id="417" value="&lt;span&gt;1627207&lt;/span&gt;" style="shape=partialRectangle;html=1;whiteSpace=wrap;connectable=0;fillColor=none;top=0;left=0;bottom=0;right=0;overflow=hidden;" vertex="1" parent="415">
                    <mxGeometry x="71" width="71" height="28" as="geometry"/>
                </mxCell>
                <mxCell id="418" value="916" style="shape=partialRectangle;html=1;whiteSpace=wrap;connectable=0;fillColor=none;top=0;left=0;bottom=0;right=0;overflow=hidden;" vertex="1" parent="415">
                    <mxGeometry x="142" width="71" height="28" as="geometry"/>
                </mxCell>
                <mxCell id="419" value="62" style="shape=partialRectangle;html=1;whiteSpace=wrap;connectable=0;fillColor=#ffe6cc;top=0;left=0;bottom=0;right=0;overflow=hidden;strokeColor=#d79b00;" vertex="1" parent="415">
                    <mxGeometry x="213" width="71" height="28" as="geometry"/>
                </mxCell>
                <mxCell id="420" value="0" style="shape=partialRectangle;html=1;whiteSpace=wrap;connectable=0;fillColor=none;top=0;left=0;bottom=0;right=0;overflow=hidden;" vertex="1" parent="415">
                    <mxGeometry x="284" width="71" height="28" as="geometry"/>
                </mxCell>
                <mxCell id="381" value="" style="shape=table;html=1;whiteSpace=wrap;startSize=0;container=1;collapsible=0;childLayout=tableLayout;strokeColor=none;fillColor=none;" vertex="1" parent="1">
                    <mxGeometry x="833" y="660" width="60" height="224" as="geometry"/>
                </mxCell>
                <mxCell id="382" value="" style="shape=partialRectangle;html=1;whiteSpace=wrap;collapsible=0;dropTarget=0;pointerEvents=0;fillColor=none;top=0;left=0;bottom=0;right=0;points=[[0,0.5],[1,0.5]];portConstraint=eastwest;" vertex="1" parent="381">
                    <mxGeometry width="60" height="28" as="geometry"/>
                </mxCell>
                <mxCell id="383" value="  0" style="shape=partialRectangle;html=1;whiteSpace=wrap;connectable=0;fillColor=none;top=0;left=0;bottom=0;right=0;overflow=hidden;" vertex="1" parent="382">
                    <mxGeometry width="60" height="28" as="geometry"/>
                </mxCell>
                <mxCell id="384" value="" style="shape=partialRectangle;html=1;whiteSpace=wrap;collapsible=0;dropTarget=0;pointerEvents=0;fillColor=none;top=0;left=0;bottom=0;right=0;points=[[0,0.5],[1,0.5]];portConstraint=eastwest;" vertex="1" parent="381">
                    <mxGeometry y="28" width="60" height="28" as="geometry"/>
                </mxCell>
                <mxCell id="385" value="&lt;span style=&quot;color: rgb(0 , 0 , 0) ; font-family: &amp;#34;helvetica&amp;#34; ; font-size: 12px ; font-style: normal ; font-weight: 400 ; letter-spacing: normal ; text-align: center ; text-indent: 0px ; text-transform: none ; word-spacing: 0px ; background-color: rgb(248 , 249 , 250) ; display: inline ; float: none&quot;&gt;  1&lt;/span&gt;" style="shape=partialRectangle;html=1;whiteSpace=wrap;connectable=0;fillColor=none;top=0;left=0;bottom=0;right=0;overflow=hidden;" vertex="1" parent="384">
                    <mxGeometry width="60" height="28" as="geometry"/>
                </mxCell>
                <mxCell id="386" value="" style="shape=partialRectangle;html=1;whiteSpace=wrap;collapsible=0;dropTarget=0;pointerEvents=0;fillColor=none;top=0;left=0;bottom=0;right=0;points=[[0,0.5],[1,0.5]];portConstraint=eastwest;" vertex="1" parent="381">
                    <mxGeometry y="56" width="60" height="28" as="geometry"/>
                </mxCell>
                <mxCell id="387" value="&lt;span style=&quot;color: rgb(0 , 0 , 0) ; font-family: &amp;#34;helvetica&amp;#34; ; font-size: 12px ; font-style: normal ; font-weight: 400 ; letter-spacing: normal ; text-align: center ; text-indent: 0px ; text-transform: none ; word-spacing: 0px ; background-color: rgb(248 , 249 , 250) ; display: inline ; float: none&quot;&gt;  2&lt;/span&gt;" style="shape=partialRectangle;html=1;whiteSpace=wrap;connectable=0;fillColor=none;top=0;left=0;bottom=0;right=0;overflow=hidden;" vertex="1" parent="386">
                    <mxGeometry width="60" height="28" as="geometry"/>
                </mxCell>
                <mxCell id="388" style="shape=partialRectangle;html=1;whiteSpace=wrap;collapsible=0;dropTarget=0;pointerEvents=0;fillColor=none;top=0;left=0;bottom=0;right=0;points=[[0,0.5],[1,0.5]];portConstraint=eastwest;" vertex="1" parent="381">
                    <mxGeometry y="84" width="60" height="28" as="geometry"/>
                </mxCell>
                <mxCell id="389" value="&lt;span style=&quot;color: rgb(0 , 0 , 0) ; font-family: &amp;#34;helvetica&amp;#34; ; font-size: 12px ; font-style: normal ; font-weight: 400 ; letter-spacing: normal ; text-align: center ; text-indent: 0px ; text-transform: none ; word-spacing: 0px ; background-color: rgb(248 , 249 , 250) ; display: inline ; float: none&quot;&gt;  3&lt;/span&gt;" style="shape=partialRectangle;html=1;whiteSpace=wrap;connectable=0;fillColor=none;top=0;left=0;bottom=0;right=0;overflow=hidden;" vertex="1" parent="388">
                    <mxGeometry width="60" height="28" as="geometry"/>
                </mxCell>
                <mxCell id="426" style="shape=partialRectangle;html=1;whiteSpace=wrap;collapsible=0;dropTarget=0;pointerEvents=0;fillColor=none;top=0;left=0;bottom=0;right=0;points=[[0,0.5],[1,0.5]];portConstraint=eastwest;" vertex="1" parent="381">
                    <mxGeometry y="112" width="60" height="28" as="geometry"/>
                </mxCell>
                <mxCell id="427" value="4" style="shape=partialRectangle;html=1;whiteSpace=wrap;connectable=0;fillColor=none;top=0;left=0;bottom=0;right=0;overflow=hidden;" vertex="1" parent="426">
                    <mxGeometry width="60" height="28" as="geometry"/>
                </mxCell>
                <mxCell id="428" style="shape=partialRectangle;html=1;whiteSpace=wrap;collapsible=0;dropTarget=0;pointerEvents=0;fillColor=none;top=0;left=0;bottom=0;right=0;points=[[0,0.5],[1,0.5]];portConstraint=eastwest;" vertex="1" parent="381">
                    <mxGeometry y="140" width="60" height="28" as="geometry"/>
                </mxCell>
                <mxCell id="429" value="5" style="shape=partialRectangle;html=1;whiteSpace=wrap;connectable=0;fillColor=none;top=0;left=0;bottom=0;right=0;overflow=hidden;" vertex="1" parent="428">
                    <mxGeometry width="60" height="28" as="geometry"/>
                </mxCell>
                <mxCell id="430" style="shape=partialRectangle;html=1;whiteSpace=wrap;collapsible=0;dropTarget=0;pointerEvents=0;fillColor=none;top=0;left=0;bottom=0;right=0;points=[[0,0.5],[1,0.5]];portConstraint=eastwest;" vertex="1" parent="381">
                    <mxGeometry y="168" width="60" height="28" as="geometry"/>
                </mxCell>
                <mxCell id="431" value="6" style="shape=partialRectangle;html=1;whiteSpace=wrap;connectable=0;fillColor=none;top=0;left=0;bottom=0;right=0;overflow=hidden;" vertex="1" parent="430">
                    <mxGeometry width="60" height="28" as="geometry"/>
                </mxCell>
                <mxCell id="524" style="shape=partialRectangle;html=1;whiteSpace=wrap;collapsible=0;dropTarget=0;pointerEvents=0;fillColor=none;top=0;left=0;bottom=0;right=0;points=[[0,0.5],[1,0.5]];portConstraint=eastwest;" vertex="1" parent="381">
                    <mxGeometry y="196" width="60" height="28" as="geometry"/>
                </mxCell>
                <mxCell id="525" value="7" style="shape=partialRectangle;html=1;whiteSpace=wrap;connectable=0;fillColor=none;top=0;left=0;bottom=0;right=0;overflow=hidden;" vertex="1" parent="524">
                    <mxGeometry width="60" height="28" as="geometry"/>
                </mxCell>
                <mxCell id="390" value="" style="shape=table;html=1;whiteSpace=wrap;startSize=0;container=1;collapsible=0;childLayout=tableLayout;strokeColor=none;fillColor=none;" vertex="1" parent="1">
                    <mxGeometry x="898" y="884" width="355" height="40" as="geometry"/>
                </mxCell>
                <mxCell id="391" value="" style="shape=partialRectangle;html=1;whiteSpace=wrap;collapsible=0;dropTarget=0;pointerEvents=0;fillColor=none;top=0;left=0;bottom=0;right=0;points=[[0,0.5],[1,0.5]];portConstraint=eastwest;" vertex="1" parent="390">
                    <mxGeometry width="355" height="40" as="geometry"/>
                </mxCell>
                <mxCell id="392" value="catId" style="shape=partialRectangle;html=1;whiteSpace=wrap;connectable=0;fillColor=none;top=0;left=0;bottom=0;right=0;overflow=hidden;" vertex="1" parent="391">
                    <mxGeometry width="71" height="40" as="geometry"/>
                </mxCell>
                <mxCell id="393" value="propId" style="shape=partialRectangle;html=1;whiteSpace=wrap;connectable=0;fillColor=none;top=0;left=0;bottom=0;right=0;overflow=hidden;" vertex="1" parent="391">
                    <mxGeometry x="71" width="71" height="40" as="geometry"/>
                </mxCell>
                <mxCell id="394" value="valueId" style="shape=partialRectangle;html=1;whiteSpace=wrap;connectable=0;fillColor=none;top=0;left=0;bottom=0;right=0;overflow=hidden;" vertex="1" parent="391">
                    <mxGeometry x="142" width="71" height="40" as="geometry"/>
                </mxCell>
                <mxCell id="395" value="nameId" style="shape=partialRectangle;html=1;whiteSpace=wrap;connectable=0;fillColor=none;top=0;left=0;bottom=0;right=0;overflow=hidden;" vertex="1" parent="391">
                    <mxGeometry x="213" width="71" height="40" as="geometry"/>
                </mxCell>
                <mxCell id="396" value="featureId" style="shape=partialRectangle;html=1;whiteSpace=wrap;connectable=0;fillColor=none;top=0;left=0;bottom=0;right=0;overflow=hidden;" vertex="1" parent="391">
                    <mxGeometry x="284" width="71" height="40" as="geometry"/>
                </mxCell>
                <mxCell id="422" value="后台类目属性的存储文件" style="text;html=1;strokeColor=none;fillColor=none;align=center;verticalAlign=middle;whiteSpace=wrap;rounded=0;" vertex="1" parent="1">
                    <mxGeometry x="981.75" y="370" width="177.5" height="20" as="geometry"/>
                </mxCell>
                <mxCell id="423" value="后台类目的存储文件" style="text;html=1;strokeColor=none;fillColor=none;align=center;verticalAlign=middle;whiteSpace=wrap;rounded=0;" vertex="1" parent="1">
                    <mxGeometry x="981.75" y="120" width="177.5" height="20" as="geometry"/>
                </mxCell>
                <mxCell id="424" value="后台类目属性值的存储文件" style="text;html=1;strokeColor=none;fillColor=none;align=center;verticalAlign=middle;whiteSpace=wrap;rounded=0;" vertex="1" parent="1">
                    <mxGeometry x="981.75" y="600" width="177.5" height="20" as="geometry"/>
                </mxCell>
                <mxCell id="517" value="" style="endArrow=classic;html=1;exitX=0.851;exitY=1.027;exitDx=0;exitDy=0;exitPerimeter=0;edgeStyle=orthogonalEdgeStyle;" edge="1" parent="1" source="155">
                    <mxGeometry width="50" height="50" relative="1" as="geometry">
                        <mxPoint x="540" y="830" as="sourcePoint"/>
                        <mxPoint x="844" y="870" as="targetPoint"/>
                        <Array as="points">
                            <mxPoint x="514" y="700"/>
                            <mxPoint x="740" y="700"/>
                            <mxPoint x="740" y="870"/>
                        </Array>
                    </mxGeometry>
                </mxCell>
                <mxCell id="526" value="" style="endArrow=classic;html=1;exitX=1;exitY=0.5;exitDx=0;exitDy=0;entryX=0;entryY=0.5;entryDx=0;entryDy=0;edgeStyle=orthogonalEdgeStyle;" edge="1" parent="1" source="28" target="289">
                    <mxGeometry width="50" height="50" relative="1" as="geometry">
                        <mxPoint x="770" y="770" as="sourcePoint"/>
                        <mxPoint x="820" y="720" as="targetPoint"/>
                    </mxGeometry>
                </mxCell>
                <mxCell id="527" value="" style="endArrow=classic;html=1;entryX=0.906;entryY=0.007;entryDx=0;entryDy=0;entryPerimeter=0;exitX=0.718;exitY=-0.075;exitDx=0;exitDy=0;exitPerimeter=0;edgeStyle=orthogonalEdgeStyle;" edge="1" parent="1" source="391" target="483">
                    <mxGeometry width="50" height="50" relative="1" as="geometry">
                        <mxPoint x="770" y="770" as="sourcePoint"/>
                        <mxPoint x="820" y="720" as="targetPoint"/>
                        <Array as="points">
                            <mxPoint x="1153" y="1090"/>
                            <mxPoint x="646" y="1090"/>
                        </Array>
                    </mxGeometry>
                </mxCell>
                <mxCell id="530" value="后台泪目-属性-属性值索引" style="text;html=1;strokeColor=none;fillColor=none;align=center;verticalAlign=middle;whiteSpace=wrap;rounded=0;fontSize=18;" vertex="1" parent="1">
                    <mxGeometry x="322" y="100" width="232" height="20" as="geometry"/>
                </mxCell>
                <mxCell id="531" value="heap" style="text;html=1;strokeColor=none;fillColor=none;align=center;verticalAlign=middle;whiteSpace=wrap;rounded=0;fontSize=18;" vertex="1" parent="1">
                    <mxGeometry x="418" y="50" width="40" height="20" as="geometry"/>
                </mxCell>
                <mxCell id="537" value="字典表" style="text;html=1;strokeColor=none;fillColor=none;align=center;verticalAlign=middle;whiteSpace=wrap;rounded=0;fontSize=18;" vertex="1" parent="1">
                    <mxGeometry x="337" y="744" width="232" height="20" as="geometry"/>
                </mxCell>
                <mxCell id="543" value="off-heap" style="text;html=1;strokeColor=none;fillColor=none;align=center;verticalAlign=middle;whiteSpace=wrap;rounded=0;fontSize=18;" vertex="1" parent="1">
                    <mxGeometry x="1055.5" y="50" width="77.5" height="20" as="geometry"/>
                </mxCell>
            </root>
        </mxGraphModel>
    </diagram>
</mxfile>